<svg xmlns="http://www.w3.org/2000/svg" width="1024" height="1024" viewBox="0 0 1024 1024">
<g>
<path d="M 0.80 847.48 C1.19,847.87 1.65,846.72 1.83,844.91 C2.07,842.49 2.39,842.01 3.06,843.07 C3.63,843.97 3.90,840.41 3.79,833.50 L 3.62 822.50 L 2.38 841.50 L 2.31 828.50 C2.27,820.71 2.54,816.70 3.00,818.50 C3.63,820.97 3.77,820.54 3.81,816.00 C3.85,812.08 3.61,811.07 3.00,812.50 C2.37,813.96 2.15,813.14 2.19,809.50 C2.21,806.75 2.45,805.35 2.72,806.40 C3.08,807.82 3.40,807.97 4.01,806.99 C4.99,805.40 4.14,802.79 2.90,803.56 C1.75,804.28 1.76,797.19 2.92,789.50 C3.42,786.20 4.10,775.46 4.43,765.62 C4.77,755.79 5.28,747.35 5.59,746.86 C6.81,744.88 8.00,747.40 8.00,751.99 C8.00,758.23 9.96,760.43 14.83,759.64 C17.16,759.26 19.26,759.63 21.16,760.75 C23.78,762.30 24.00,762.90 24.01,768.47 C24.03,777.32 24.65,778.83 28.35,779.19 L 31.50 779.50 L 32.50 794.50 L 39.50 796.78 L 39.53 808.64 C39.54,815.74 40.04,821.63 40.78,823.32 C41.45,824.86 42.00,827.29 42.00,828.70 C42.00,832.01 46.30,836.01 50.61,836.71 C53.46,837.17 54.09,836.89 55.09,834.70 C56.69,831.19 55.47,827.13 52.47,825.99 C50.92,825.40 50.00,824.26 50.00,822.93 C50.00,821.76 49.26,819.55 48.35,818.02 C45.68,813.50 47.07,811.84 53.24,812.20 C58.09,812.48 58.52,812.70 58.81,815.15 C59.18,818.38 62.36,821.46 64.49,820.64 C66.10,820.03 66.42,819.38 67.42,814.82 C67.85,812.83 68.71,812.05 70.71,811.82 C74.16,811.41 74.77,809.27 74.90,797.18 L 75.00 787.87 L 77.75 788.18 C79.82,788.42 80.58,789.12 80.82,791.00 C81.31,794.78 83.72,796.00 90.69,796.00 C96.61,796.00 97.00,796.14 97.00,798.31 C97.00,801.45 98.99,803.79 102.00,804.18 C103.91,804.42 104.50,805.09 104.50,806.99 C104.50,808.98 103.89,809.58 101.50,809.99 C99.02,810.42 98.45,811.04 98.20,813.59 C97.78,817.92 99.46,818.77 107.32,818.23 C113.33,817.81 114.25,817.48 115.03,815.43 C115.52,814.14 117.32,812.37 119.03,811.48 C120.78,810.58 122.60,808.58 123.17,806.95 C123.73,805.34 125.38,803.45 126.84,802.75 L 129.50 801.47 L 129.77 778.52 C129.92,765.89 130.40,755.20 130.84,754.76 C131.29,754.31 131.21,751.53 130.68,748.58 C129.57,742.46 130.16,739.99 132.72,740.03 C134.81,740.07 137.40,743.38 138.35,747.22 C138.72,748.72 140.00,750.86 141.20,751.97 C142.76,753.43 142.97,754.02 141.94,754.07 C141.06,754.11 141.25,754.43 142.43,754.90 C143.65,755.37 144.76,757.29 145.43,760.08 L 146.50 764.50 L 152.09 764.80 C156.29,765.02 158.02,764.69 159.03,763.47 C160.87,761.24 158.85,760.04 153.25,760.02 C149.45,760.00 149.00,759.75 149.00,757.63 C149.00,755.39 149.44,755.22 157.06,754.56 C162.76,754.06 165.54,754.20 166.56,755.05 C168.20,756.41 168.52,760.00 167.00,760.00 C166.45,760.00 166.00,761.12 166.00,762.50 C166.00,764.46 166.51,765.00 168.35,765.00 C169.63,765.00 171.50,765.90 172.50,767.00 C173.50,768.10 175.33,769.00 176.57,769.00 C177.82,769.00 179.04,769.56 179.30,770.25 C179.83,771.66 180.41,770.41 181.45,765.69 C182.35,761.59 185.89,762.37 187.37,766.99 C188.26,769.73 189.15,770.59 191.49,771.00 C193.44,771.34 194.60,772.20 194.85,773.51 C195.33,776.12 197.00,778.12 198.11,777.43 C200.10,776.20 198.78,772.09 195.12,768.13 C192.98,765.81 190.98,762.64 190.67,761.08 C190.09,758.20 188.87,756.62 184.66,753.31 C181.97,751.19 180.00,747.88 180.00,745.47 C180.00,744.56 179.07,742.50 177.94,740.91 C173.87,735.20 177.11,728.12 181.66,732.77 C182.67,733.80 185.07,735.72 187.00,737.04 C188.93,738.35 191.77,740.68 193.33,742.21 C196.14,744.99 200.32,745.90 201.50,744.00 C201.84,743.45 202.99,743.00 204.06,743.00 C205.44,743.00 206.00,743.69 206.00,745.38 C206.00,748.19 207.56,749.68 211.00,750.15 C212.70,750.39 213.60,751.22 213.82,752.75 C214.12,754.84 214.64,755.00 221.07,755.00 C227.99,755.00 228.00,755.00 228.00,757.80 C228.00,762.45 229.43,763.00 241.58,763.00 C254.08,763.00 254.67,762.72 255.18,756.49 L 255.50 752.50 L 266.66 752.00 C277.25,751.53 277.95,751.36 280.36,748.75 C283.63,745.22 285.00,745.27 285.00,748.93 C285.00,752.74 287.36,755.00 291.32,754.98 C295.82,754.96 297.24,753.80 296.48,750.76 C295.77,747.96 297.20,746.43 299.35,747.70 C300.10,748.14 304.45,752.46 309.01,757.30 C317.35,766.14 318.01,767.90 313.15,768.26 C311.59,768.38 310.85,769.28 310.41,771.61 C309.53,776.35 310.24,778.46 312.84,778.83 C315.78,779.25 318.61,776.72 320.04,772.38 C321.31,768.54 321.48,768.48 325.25,770.45 C325.37,770.51 325.48,770.57 325.59,770.63 C326.82,771.27 327.51,771.63 327.73,771.44 C328.02,771.20 327.53,770.05 326.40,767.41 C326.32,767.22 326.24,767.03 326.16,766.83 C325.15,764.45 324.06,760.88 323.75,758.91 C323.43,756.93 321.34,750.99 319.09,745.71 C316.84,740.42 315.00,735.23 315.00,734.17 C315.00,733.11 314.34,731.69 313.53,731.02 C312.72,730.35 311.75,728.18 311.38,726.19 C310.72,722.68 307.32,714.19 304.43,708.85 C303.64,707.39 303.00,705.53 303.00,704.73 C303.00,703.93 302.17,702.20 301.15,700.88 C300.14,699.57 298.98,697.16 298.57,695.51 C298.17,693.87 296.29,689.43 294.39,685.65 C292.05,680.99 290.77,676.81 290.39,672.64 C290.08,669.26 289.19,664.80 288.41,662.73 C286.45,657.51 286.50,628.40 288.49,617.00 C290.81,603.68 291.56,600.75 293.59,596.90 C298.96,586.76 302.00,580.13 302.00,578.55 C302.00,577.59 302.64,575.38 303.41,573.65 C304.19,571.92 305.09,568.92 305.42,567.00 C305.74,565.08 306.68,562.21 307.51,560.64 C308.33,559.06 309.00,556.99 309.00,556.03 C309.00,554.04 314.75,542.83 316.26,541.86 C318.68,540.31 323.89,543.56 332.91,552.21 C339.25,558.30 344.90,562.71 349.32,565.00 L 356.05 568.50 L 359.28 564.89 C361.61,562.28 365.13,560.22 372.00,557.46 C377.23,555.36 381.95,553.32 382.50,552.92 C385.00,551.09 402.86,545.73 404.43,546.34 C405.39,546.70 407.12,549.25 408.29,552.00 C409.45,554.75 410.76,557.00 411.20,557.00 C412.51,557.00 412.14,555.19 409.37,548.17 C398.78,521.31 382.20,497.92 363.00,482.74 C353.39,475.14 342.69,468.89 339.13,468.78 C336.03,468.70 324.13,476.36 317.50,482.71 C313.46,486.58 304.74,496.50 302.27,500.03 C299.22,504.38 291.07,504.44 284.00,500.15 C279.45,497.40 279.01,496.20 279.67,488.37 C280.38,479.99 279.23,478.53 274.30,481.53 C268.71,484.92 254.39,504.67 250.29,514.65 C248.31,519.46 247.49,519.99 246.71,516.99 C244.84,509.85 254.34,475.57 259.69,470.18 C260.41,469.45 261.00,468.21 261.00,467.43 C261.00,466.64 261.45,466.00 262.00,466.00 C262.55,466.00 263.00,465.34 263.00,464.52 C263.00,463.71 264.12,462.31 265.50,461.41 C266.88,460.51 268.00,459.18 268.00,458.46 C268.00,456.62 282.92,444.29 285.28,444.19 C285.71,444.17 289.08,443.01 292.78,441.60 C306.13,436.54 311.46,435.65 328.50,435.67 C339.00,435.67 347.70,436.25 353.79,437.35 C383.47,442.67 413.48,458.40 433.54,479.15 C452.47,498.71 463.01,516.12 472.07,542.75 C476.26,555.06 479.31,559.99 476.10,549.25 C475.15,546.09 474.44,542.17 474.52,540.54 C474.65,538.07 475.23,537.44 478.05,536.71 C479.91,536.23 482.92,534.52 484.75,532.92 C486.58,531.31 488.90,530.00 489.92,530.00 C491.05,530.00 492.42,528.64 493.43,526.50 C495.51,522.13 497.53,522.05 499.48,526.25 C500.32,528.04 501.86,530.85 502.92,532.50 C503.98,534.15 505.59,537.63 506.50,540.24 C507.41,542.84 509.30,545.88 510.71,546.99 C512.51,548.40 512.80,549.00 511.69,549.00 C509.02,549.00 508.87,550.67 510.97,556.92 C513.44,564.25 513.46,564.93 511.25,566.61 C509.60,567.86 509.60,567.94 511.23,567.97 C512.30,567.99 513.18,569.05 513.54,570.75 C513.85,572.26 514.73,575.97 515.49,579.00 C522.08,605.32 525.44,642.28 525.12,685.00 C524.90,713.64 523.78,725.82 519.87,742.00 C518.74,746.67 517.15,751.54 516.34,752.82 C513.81,756.79 511.61,759.00 510.17,759.00 C509.27,759.00 509.02,759.60 509.45,760.72 C509.81,761.67 509.78,762.11 509.38,761.71 C508.98,761.31 507.65,761.92 506.42,763.08 L 504.19 765.17 L 494.84 762.47 C481.68,758.66 479.86,758.69 478.80,762.75 C478.33,764.51 478.10,765.44 477.53,765.73 C476.91,766.05 475.89,765.59 473.72,764.61 L 473.65 764.58 C464.38,760.41 460.51,759.00 458.33,759.00 C457.00,759.00 452.99,758.27 449.42,757.37 L 448.95 757.25 C444.84,756.22 443.36,755.84 442.60,756.42 C442.14,756.78 441.95,757.47 441.61,758.59 C441.03,760.48 441.84,760.94 450.23,763.51 C455.33,765.07 463.23,767.56 467.78,769.05 L 476.06 771.75 L 477.17 769.63 C477.77,768.46 478.36,767.39 478.47,767.25 C478.58,767.11 483.36,768.15 489.09,769.57 C522.04,777.73 542.79,780.40 573.50,780.40 C601.05,780.41 619.36,778.20 643.74,771.91 C670.90,764.91 697.46,753.05 714.29,740.40 C731.45,727.50 747.18,708.82 760.12,686.00 C767.12,673.64 768.28,671.00 766.69,671.00 C766.03,671.00 764.92,671.90 764.23,673.00 C762.18,676.29 760.69,675.44 761.45,671.41 C761.98,668.60 761.73,667.49 760.31,666.33 C758.64,664.97 758.73,664.90 761.50,665.40 C763.15,665.71 765.49,666.23 766.70,666.58 C769.69,667.43 771.52,664.26 779.15,645.01 C785.68,628.53 793.38,609.97 795.22,606.25 C795.84,605.01 797.11,604.00 798.05,604.00 C800.16,604.00 813.04,608.79 814.75,610.21 C816.85,611.95 816.22,614.36 810.35,627.17 C807.25,633.95 801.48,647.36 797.52,656.97 C791.43,671.80 789.97,674.54 787.92,675.04 L 785.50 675.62 L 787.80 676.87 C789.06,677.56 791.30,677.98 792.76,677.81 C795.13,677.53 795.90,676.33 799.71,667.00 C802.07,661.22 804.42,655.60 804.94,654.50 C806.31,651.61 810.88,640.20 812.66,635.25 C813.50,632.91 814.78,631.00 815.49,631.00 C816.29,631.00 816.99,629.33 817.29,626.75 C817.56,624.41 818.29,620.57 818.91,618.20 C819.65,615.38 819.71,612.80 819.11,610.70 C818.60,608.94 818.14,608.09 818.09,608.81 C818.03,609.61 817.52,609.81 816.75,609.31 C816.06,608.87 811.93,607.11 807.56,605.41 L 799.61 602.32 L 804.06 601.72 C806.51,601.38 809.41,601.27 810.51,601.48 C811.60,601.68 812.99,601.88 813.59,601.92 C814.19,601.97 815.22,603.19 815.89,604.65 C817.23,607.61 818.40,606.95 819.41,602.67 C819.85,600.81 819.72,600.05 819.04,600.48 C818.45,600.84 818.00,600.21 818.00,599.00 C818.00,597.58 818.41,597.12 819.25,597.61 C819.94,598.01 819.71,597.44 818.75,596.34 C817.79,595.24 817.01,593.93 817.02,593.42 C817.02,592.91 817.45,593.16 817.96,593.97 C818.78,595.27 818.95,595.27 819.41,593.97 C819.70,593.16 820.06,590.47 820.22,588.00 C820.47,583.93 820.76,583.47 823.21,583.19 L 825.92 582.87 L 826.21 591.68 C826.54,601.57 827.72,602.94 832.63,599.07 C834.08,597.93 836.64,597.00 838.32,597.00 C840.08,597.00 842.35,596.08 843.69,594.83 L 846.00 592.65 L 848.31 594.83 C849.59,596.02 851.42,597.00 852.38,597.00 C854.61,597.00 859.34,602.53 860.01,605.92 C860.29,607.34 861.19,608.50 862.01,608.50 C863.21,608.50 863.60,606.30 864.00,597.00 C864.28,590.67 864.98,584.69 865.57,583.69 C866.54,582.06 867.07,582.36 871.07,586.69 C874.68,590.61 876.13,591.50 878.87,591.50 C881.83,591.50 882.37,591.92 883.37,595.00 L 884.50 598.50 L 899.50 599.50 L 899.78 604.50 C900.20,612.03 900.75,612.97 903.04,609.99 C904.52,608.07 904.96,605.83 904.98,600.23 C905.00,594.07 905.40,592.35 907.63,588.98 C911.42,583.25 913.28,583.92 913.18,591.00 C913.15,593.53 913.77,595.39 915.05,596.54 C916.23,597.62 916.78,599.09 916.47,600.39 C915.91,602.78 916.63,604.02 919.50,605.61 C921.39,606.66 921.50,607.71 921.42,624.11 C921.38,633.67 921.22,642.62 921.08,644.00 C920.64,648.12 922.19,655.14 923.66,655.70 C925.61,656.45 928.00,654.15 928.00,651.53 C928.00,650.30 928.51,647.85 929.12,646.07 C930.07,643.36 930.63,642.94 932.60,643.44 C935.86,644.25 936.44,641.33 935.68,628.01 L 935.06 617.31 L 937.90 614.60 C940.48,612.12 940.77,611.12 941.23,603.13 C941.50,598.32 942.27,593.37 942.93,592.13 C944.67,588.88 947.43,589.80 947.81,593.76 C948.07,596.39 948.56,597.00 950.44,597.00 C953.02,597.00 954.60,595.50 955.16,592.50 C955.36,591.40 956.20,590.50 957.01,590.50 C958.16,590.50 958.43,591.58 958.20,595.26 C957.97,598.92 958.27,600.17 959.52,600.64 C961.52,601.41 966.90,595.46 966.96,592.40 C966.98,591.25 967.88,589.51 968.96,588.54 C970.41,587.23 970.99,585.20 971.21,580.64 C971.43,575.98 971.86,574.50 973.00,574.50 C973.89,574.50 974.63,575.61 974.82,577.25 C975.17,580.32 977.36,582.00 981.00,582.00 C981.57,582.00 982.00,584.96 982.00,588.88 C982.00,596.59 982.93,598.02 987.50,597.29 C989.56,596.96 991.37,595.58 993.25,592.89 C994.76,590.74 996.00,588.47 996.00,587.85 C996.00,587.23 996.75,586.17 997.67,585.50 C999.08,584.47 999.38,581.92 999.59,569.06 C999.84,554.28 999.93,553.71 1002.59,549.87 C1006.13,544.77 1006.74,544.45 1009.04,546.53 C1010.87,548.19 1010.99,548.15 1011.97,545.57 C1012.54,544.08 1013.00,540.42 1013.00,537.43 C1013.00,532.11 1014.40,530.21 1015.71,533.75 C1016.06,534.71 1016.68,535.72 1017.08,536.00 C1017.48,536.28 1018.12,538.63 1018.51,541.24 C1019.09,545.11 1018.93,546.09 1017.61,546.60 C1015.61,547.37 1015.48,550.00 1017.45,550.00 C1018.25,550.00 1019.36,550.79 1019.92,551.75 C1020.65,553.01 1021.01,549.26 1021.18,538.50 L 1021.41 523.50 L 1022.00 537.00 C1022.01,537.22 1022.02,537.33 1022.03,537.33 C1022.35,537.33 1022.68,422.10 1022.79,275.25 L 1023.00 0.00 L 1024.00 0.00 L 1024.00 1024.00 L 0.00 1024.00 L 0.00 268.35 L 0.03 423.38 C0.07,656.25 0.42,847.09 0.80,847.48 ZM 599.00 771.55 C576.47,773.57 552.61,773.17 532.00,770.44 C517.02,768.45 509.13,766.29 509.43,764.26 C509.95,760.76 516.28,758.68 518.78,761.18 C519.68,762.08 520.37,761.89 521.73,760.34 C523.03,758.85 525.25,758.16 530.10,757.71 C533.73,757.38 537.11,757.46 537.60,757.89 C538.10,758.32 540.38,758.28 542.68,757.79 C546.16,757.06 547.29,756.18 549.40,752.58 C550.79,750.20 552.24,746.28 552.62,743.88 C552.99,741.47 554.57,736.30 556.13,732.39 C557.68,728.48 559.58,721.36 560.35,716.56 C561.87,707.11 562.53,705.88 566.27,705.65 C568.86,705.49 570.65,704.18 570.56,702.51 C570.53,701.97 572.59,701.23 575.14,700.86 C579.64,700.22 584.31,698.51 590.50,695.23 C592.15,694.36 594.40,693.17 595.50,692.59 C596.60,692.01 599.76,690.11 602.52,688.37 C605.27,686.63 608.66,685.06 610.03,684.88 C612.81,684.51 619.03,687.13 620.98,689.48 C621.68,690.32 622.75,691.01 623.37,691.03 C624.89,691.07 633.70,695.55 643.77,701.39 C648.31,704.03 653.71,706.41 655.77,706.68 C659.21,707.13 660.10,706.65 667.25,700.51 C671.51,696.85 675.00,693.23 675.00,692.48 C675.00,691.73 676.86,689.62 679.14,687.81 C681.41,685.99 685.12,682.51 687.39,680.07 C689.65,677.63 693.60,673.64 696.17,671.21 C702.27,665.44 705.57,658.07 704.03,653.67 C702.96,650.59 699.14,644.35 696.08,640.68 C695.24,639.67 694.02,636.97 693.37,634.68 C692.72,632.38 691.87,629.38 691.48,628.00 C690.86,625.85 691.21,626.03 693.98,629.29 C696.25,631.95 697.74,632.90 699.02,632.49 C700.22,632.11 701.69,632.83 703.32,634.59 C705.42,636.86 706.30,637.15 709.15,636.54 C710.99,636.15 715.25,635.60 718.60,635.33 L 724.71 634.84 L 728.06 639.17 C729.90,641.55 733.01,644.98 734.96,646.79 C738.44,650.03 738.64,650.08 746.75,649.79 C755.92,649.47 756.31,649.81 753.00,655.23 C750.39,659.51 750.39,665.39 753.00,668.00 C755.65,670.65 755.52,672.95 752.50,677.40 C751.12,679.43 750.00,681.54 750.00,682.09 C750.00,682.64 748.89,684.21 747.52,685.57 C744.36,688.73 743.00,691.29 743.00,694.09 C743.00,695.38 741.32,697.90 739.00,700.11 C736.80,702.21 735.00,704.36 735.00,704.89 C735.00,705.42 733.88,706.74 732.50,707.82 C731.12,708.90 730.00,710.42 730.00,711.20 C730.00,712.69 719.02,724.27 715.25,726.75 C714.01,727.56 713.00,728.88 713.00,729.67 C713.00,730.47 712.55,730.84 712.00,730.50 C711.45,730.16 711.00,730.33 711.00,730.87 C711.00,731.42 710.21,732.12 709.25,732.43 C708.29,732.74 705.79,734.57 703.69,736.50 C701.60,738.42 699.48,740.00 698.98,740.00 C698.48,740.00 696.52,741.36 694.63,743.02 C686.13,750.49 655.32,761.92 629.83,767.07 C621.40,768.77 607.53,770.79 599.00,771.55 ZM 284.25 304.55 C275.31,307.55 267.21,309.97 266.25,309.92 C265.29,309.88 262.95,309.29 261.06,308.60 L 257.62 307.36 L 266.44 303.67 C275.38,299.92 307.09,289.49 319.00,286.37 C322.58,285.44 326.08,283.96 326.79,283.09 C327.82,281.83 328.24,281.77 328.89,282.82 C329.42,283.68 331.35,284.02 334.59,283.81 L 339.48 283.50 L 341.12 273.00 C346.13,240.89 355.04,210.31 366.00,187.51 C385.54,146.89 417.80,114.41 459.41,93.45 C476.40,84.90 493.25,78.82 511.00,74.85 C520.25,72.78 524.07,72.50 543.20,72.50 C559.07,72.50 565.23,72.83 566.13,73.73 C566.81,74.41 567.17,75.16 566.93,75.40 C566.69,75.64 561.10,75.35 554.50,74.74 C533.03,72.78 511.45,75.93 487.62,84.51 C473.23,89.69 458.49,96.58 454.50,100.00 C453.40,100.94 450.92,102.56 449.00,103.61 C440.01,108.47 425.65,120.42 425.41,123.24 C425.35,123.93 425.24,125.47 425.15,126.65 C425.05,128.07 423.98,129.16 422.00,129.85 C420.35,130.43 419.00,131.37 419.00,131.96 C419.00,132.54 417.42,135.26 415.50,138.00 C411.87,143.16 410.88,148.00 413.44,148.00 C416.20,148.00 415.84,149.60 412.18,153.62 C408.26,157.94 407.41,159.07 398.87,171.50 C388.58,186.46 384.90,193.10 377.28,210.50 C370.10,226.88 363.32,251.76 359.97,274.00 C358.77,281.98 357.65,288.65 357.47,288.84 C356.43,289.95 348.19,290.96 339.92,290.98 C328.95,291.00 313.21,294.84 284.25,304.55 ZM 426.62 615.25 C427.56,621.71 428.52,627.00 428.76,627.00 C429.47,627.00 427.97,613.45 425.90,601.11 C423.79,588.52 424.01,587.56 429.32,586.49 C431.07,586.13 436.16,584.70 440.64,583.31 C450.53,580.23 451.59,578.74 450.02,570.08 C447.29,555.05 435.64,528.10 428.40,520.12 L 424.26 515.54 L 412.88 515.23 C404.12,514.99 400.45,515.10 397.57,513.64 C394.97,512.33 393.01,509.74 388.50,504.45 C377.55,491.63 366.13,480.63 358.03,475.09 C348.64,468.69 343.78,465.98 341.80,466.04 C341.08,466.07 342.22,467.00 344.32,468.10 C346.42,469.21 350.06,471.55 352.40,473.31 C354.75,475.06 358.61,477.85 360.98,479.50 C371.53,486.84 386.73,503.29 395.18,516.50 C400.00,524.04 409.75,543.68 412.30,551.00 C414.42,557.06 420.62,581.01 422.07,588.69 C422.94,593.32 422.95,595.70 422.11,598.12 C421.27,600.51 421.27,601.55 422.10,602.06 C422.73,602.45 422.92,603.67 422.54,604.88 C422.12,606.21 422.30,607.00 423.03,607.00 C423.83,607.00 424.02,605.39 423.63,601.75 C422.69,592.84 424.68,601.84 426.62,615.25 ZM 460.35 129.03 C454.93,130.14 449.26,131.32 447.75,131.65 C443.76,132.52 444.32,130.67 449.25,126.77 C456.59,120.95 461.47,118.23 473.66,113.17 C499.42,102.48 522.40,97.62 544.70,98.17 C557.39,98.49 560.73,99.28 559.21,101.59 C557.57,104.08 543.66,113.25 535.89,116.97 C521.26,123.96 505.14,126.95 481.85,126.98 C474.11,126.99 466.89,127.68 460.35,129.03 ZM 422.35 747.48 C422.56,748.02 422.64,748.41 422.87,748.63 C423.38,749.11 424.63,748.79 429.60,747.53 C430.21,747.37 430.89,747.20 431.62,747.02 C441.11,744.63 444.62,744.52 449.35,746.50 C451.32,747.33 453.34,748.00 453.85,748.00 C455.09,748.00 458.63,733.48 460.12,722.33 C461.23,713.98 461.18,713.04 459.58,711.44 C457.49,709.35 449.44,709.14 440.68,710.96 C437.57,711.61 434.80,711.99 434.53,711.82 C432.97,710.83 428.87,719.95 426.56,729.55 C425.11,735.57 423.44,741.73 422.85,743.23 C422.26,744.73 422.03,746.65 422.35,747.48 ZM 328.61 424.23 C330.05,428.66 330.17,435.56 328.75,432.00 C327.31,428.38 323.93,416.82 322.03,409.04 C318.44,394.32 317.98,393.00 316.45,393.00 C314.94,393.00 281.20,402.76 279.88,403.58 C279.47,403.83 278.85,403.57 278.51,403.01 C278.09,402.33 277.26,402.32 276.01,403.00 C273.08,404.56 254.94,404.31 255.55,402.72 C256.13,401.22 279.84,392.20 291.50,389.03 C295.90,387.84 301.30,386.20 303.50,385.40 C307.09,384.09 312.22,382.94 321.70,381.34 C323.49,381.03 325.09,380.07 325.33,379.15 C325.63,378.00 325.80,378.17 325.88,379.70 C325.99,381.66 326.63,381.93 331.75,382.20 L 337.50 382.50 L 332.00 384.21 C328.98,385.16 325.26,386.18 323.75,386.48 C321.30,386.98 321.00,387.47 321.00,391.08 C321.00,395.00 325.52,414.67 328.61,424.23 ZM 469.40 600.92 C468.91,603.96 469.11,604.67 470.42,604.67 C472.96,604.67 473.34,600.93 472.59,583.20 C471.87,566.06 470.75,561.01 467.26,559.14 C466.21,558.58 464.78,556.22 464.09,553.89 C463.39,551.57 460.95,546.70 458.66,543.08 C454.88,537.10 454.47,536.74 454.19,539.18 C454.02,540.65 455.23,546.27 456.89,551.68 C462.80,571.01 464.04,575.65 466.04,586.00 C467.16,591.78 468.51,596.65 469.04,596.83 C469.57,597.02 469.73,598.84 469.40,600.92 ZM 31.34 738.50 L 31.50 746.50 L 24.75 746.80 L 18.00 747.09 L 18.00 732.01 C18.00,717.30 18.05,716.92 20.25,716.08 C22.73,715.14 25.00,716.37 25.00,718.65 C25.00,719.42 26.07,720.46 27.39,720.96 C30.19,722.02 31.08,725.99 31.34,738.50 ZM 465.75 752.18 C468.31,752.48 474.94,749.61 475.05,748.15 C475.38,743.95 476.30,737.90 476.98,735.50 C478.70,729.45 479.03,725.10 478.11,720.98 C476.79,715.11 475.49,714.06 472.83,716.72 C471.34,718.22 469.53,723.49 466.85,734.18 C464.74,742.61 463.01,750.03 463.01,750.68 C463.00,751.33 464.24,752.01 465.75,752.18 ZM 56.00 794.21 C55.56,800.59 55.25,801.54 53.46,801.79 C52.34,801.95 51.10,801.77 50.71,801.38 C50.32,800.99 50.00,796.26 50.00,790.87 C50.00,781.96 50.19,780.97 52.08,779.95 C53.23,779.34 54.81,777.30 55.60,775.42 C56.38,773.54 57.68,772.00 58.48,772.00 C59.29,772.00 60.30,770.62 60.74,768.94 C62.29,762.96 63.50,765.47 63.79,775.25 C64.07,784.82 64.03,785.00 61.79,785.02 C57.46,785.04 56.53,786.53 56.00,794.21 ZM 568.24 641.65 C567.65,641.28 566.94,641.55 566.66,642.24 C566.39,642.93 566.13,643.05 566.09,642.50 C566.06,641.95 566.36,641.04 566.77,640.48 C567.63,639.28 573.17,636.57 574.25,636.83 C574.66,636.92 575.00,636.55 575.00,636.00 C575.00,635.45 575.83,635.00 576.85,635.00 C579.06,635.00 582.32,631.68 581.25,630.51 C580.84,630.05 581.26,629.96 582.20,630.29 C583.37,630.71 583.74,630.47 583.38,629.54 C583.06,628.72 583.78,627.90 585.18,627.48 C586.45,627.10 588.40,625.94 589.50,624.92 C596.52,618.39 598.15,617.00 598.78,617.00 C599.18,616.99 602.78,613.81 606.80,609.93 C613.74,603.21 615.87,602.12 616.77,604.82 C617.37,606.61 604.39,619.36 602.91,618.44 C602.16,617.98 601.95,618.11 602.37,618.79 C603.08,619.94 597.47,627.00 595.83,627.00 C595.30,627.00 593.39,628.12 591.59,629.50 C589.79,630.88 587.64,632.00 586.83,632.00 C586.02,632.00 584.34,633.08 583.10,634.39 C581.14,636.48 579.61,637.12 573.17,638.55 C572.43,638.71 571.26,639.63 570.57,640.58 C569.87,641.53 568.82,642.01 568.24,641.65 ZM 688.00 619.07 C688.00,622.59 687.69,622.66 684.98,619.75 C683.29,617.94 682.97,616.58 683.32,612.79 C683.80,607.75 687.93,599.63 690.53,598.63 C691.39,598.30 691.85,598.44 691.54,598.94 C691.22,599.45 691.42,600.14 691.98,600.49 C692.54,600.84 693.00,602.22 693.00,603.56 C693.00,605.33 693.55,606.00 695.00,606.00 C696.10,606.00 697.00,605.64 697.00,605.19 C697.00,604.75 697.63,603.53 698.39,602.48 C700.71,599.32 703.00,602.19 703.00,608.25 L 703.00 613.26 L 699.25 612.54 C697.19,612.14 694.56,611.74 693.40,611.66 C692.25,611.57 690.56,610.88 689.65,610.13 C688.33,609.03 687.70,609.00 686.50,610.00 C685.67,610.68 685.00,611.67 685.00,612.19 C685.00,612.72 685.67,613.82 686.50,614.64 C687.33,615.47 688.00,617.46 688.00,619.07 ZM 703.96 380.81 C700.34,384.70 699.45,382.95 702.07,377.10 C704.44,371.80 704.50,369.18 702.33,365.97 C699.90,362.37 690.59,351.68 682.23,342.88 C677.14,337.53 675.38,335.07 676.37,334.69 C678.32,333.94 698.08,353.05 702.50,359.97 C705.59,364.80 706.00,366.20 706.00,372.03 C706.00,377.28 705.59,379.07 703.96,380.81 ZM 434.75 795.43 C435.97,796.68 444.22,795.31 452.65,792.47 C458.32,790.56 461.65,789.98 464.65,790.38 C467.52,790.76 469.16,790.51 469.95,789.57 C470.86,788.47 470.24,787.88 466.79,786.59 C461.98,784.79 452.90,782.03 451.75,782.01 C450.25,781.99 451.05,784.80 452.73,785.45 C454.86,786.27 449.16,789.01 440.02,791.58 C434.13,793.23 433.23,793.88 434.75,795.43 ZM 559.50 799.88 C562.92,801.00 571.78,800.77 590.50,799.08 C606.14,797.66 606.87,797.48 600.64,796.50 C597.84,796.06 595.51,796.13 595.14,796.67 C594.46,797.66 542.49,797.77 530.50,796.81 C526.65,796.50 524.96,796.44 526.75,796.68 C528.54,796.92 530.00,797.43 530.00,797.81 C530.00,798.19 532.53,798.34 535.62,798.15 C539.70,797.90 541.04,798.12 540.52,798.96 C539.99,799.82 541.95,799.96 548.15,799.51 C552.79,799.17 557.83,799.34 559.50,799.88 ZM 242.05 582.50 C241.30,580.64 241.22,580.67 240.80,583.00 C240.55,584.38 240.31,575.94 240.28,564.26 C240.23,549.79 240.55,543.22 241.25,543.66 C241.94,544.08 242.12,542.74 241.77,539.67 C241.43,536.65 241.61,535.26 242.27,535.67 C242.90,536.06 243.11,535.36 242.82,533.85 C242.38,531.51 244.41,528.20 245.33,529.76 C245.58,530.17 245.16,534.55 244.41,539.50 C243.66,544.45 243.00,556.60 242.95,566.50 C242.90,576.68 242.51,583.63 242.05,582.50 ZM 814.00 592.02 C811.91,593.34 811.03,593.23 810.39,591.57 C809.70,589.77 805.44,588.26 801.44,588.40 C797.69,588.52 792.81,584.39 795.49,583.37 C799.25,581.92 809.67,585.44 814.00,589.62 C815.33,590.91 815.33,591.18 814.00,592.02 ZM 408.38 764.09 C405.93,768.06 404.64,770.71 405.52,769.98 C408.09,767.85 414.73,755.81 418.02,747.35 C421.89,737.36 426.25,720.66 425.75,717.74 C425.47,716.10 425.17,716.56 424.61,719.50 C422.07,732.97 414.15,754.73 408.38,764.09 ZM 89.00 754.04 C89.00,755.65 84.75,755.00 80.00,752.68 C76.46,750.95 75.50,749.94 75.50,747.99 C75.50,745.98 76.06,745.44 78.44,745.17 C80.82,744.89 82.10,745.62 85.19,748.96 C87.28,751.23 89.00,753.52 89.00,754.04 ZM 535.43 652.79 C534.58,654.01 533.49,655.00 533.01,655.00 C531.67,655.00 530.85,651.46 531.54,648.68 C531.89,647.31 531.68,645.27 531.08,644.15 C530.29,642.66 530.31,641.42 531.16,639.56 C533.27,634.92 535.00,637.10 535.00,644.38 C535.00,646.70 535.45,649.05 535.99,649.59 C536.65,650.25 536.46,651.33 535.43,652.79 ZM 285.00 727.80 C285.00,730.32 283.13,728.86 282.46,725.82 C281.72,722.43 278.71,716.53 276.40,713.92 C275.63,713.05 275.00,711.85 275.00,711.24 C275.00,710.63 274.11,709.85 273.02,709.51 C271.50,709.02 271.10,708.12 271.29,705.69 C271.56,702.40 272.86,701.69 274.19,704.12 C276.88,709.01 285.00,726.81 285.00,727.80 ZM 711.00 762.00 C711.00,763.58 711.73,763.26 718.30,758.78 C721.71,756.46 724.95,754.52 725.50,754.47 C727.52,754.30 729.97,752.77 729.49,751.98 C729.22,751.54 731.02,749.39 733.50,747.21 C735.97,745.03 738.00,743.00 738.00,742.69 C738.00,742.23 720.59,754.87 714.74,759.58 C713.77,760.36 712.53,761.00 711.99,761.00 C711.44,761.00 711.00,761.45 711.00,762.00 ZM 136.80 704.75 C137.07,710.51 136.93,711.00 135.02,711.00 C132.38,711.00 131.80,709.45 132.19,703.37 C132.45,699.27 132.82,698.50 134.50,698.50 C136.25,698.50 136.54,699.27 136.80,704.75 ZM 293.63 773.48 C294.34,775.32 294.50,775.33 297.01,773.76 C298.55,772.80 299.43,772.79 300.89,773.70 C303.04,775.04 304.00,774.48 304.00,771.87 C304.00,769.98 301.22,768.00 298.57,768.00 C296.28,768.00 292.95,771.70 293.63,773.48 ZM 559.50 647.00 C559.16,647.55 557.78,648.00 556.44,648.00 C553.53,648.00 553.13,645.38 555.75,643.39 C558.11,641.60 564.63,641.61 565.32,643.40 C566.03,645.24 565.18,646.00 562.39,646.00 C561.14,646.00 559.84,646.45 559.50,647.00 ZM 62.01 869.17 C62.56,869.35 64.92,869.49 67.26,869.48 C70.80,869.46 71.50,869.13 71.50,867.48 C71.50,865.80 70.73,865.48 66.25,865.27 C61.68,865.07 61.00,865.28 61.00,866.94 C61.00,867.98 61.45,868.98 62.01,869.17 ZM 500.54 599.75 C500.93,604.84 501.48,609.00 501.77,609.00 C502.60,609.00 501.24,590.03 499.89,582.68 C499.22,579.05 498.36,576.28 497.99,576.51 C497.61,576.74 497.87,579.98 498.58,583.72 C499.28,587.45 500.16,594.66 500.54,599.75 ZM 350.77 421.06 C346.55,424.11 345.00,424.65 345.00,423.08 C345.00,421.99 355.21,412.88 355.79,413.46 C356.91,414.58 354.35,418.46 350.77,421.06 ZM 566.06 746.06 C568.23,747.43 571.61,747.18 572.96,745.54 C574.65,743.52 573.40,742.00 570.06,742.00 C566.54,742.00 563.90,744.69 566.06,746.06 ZM 427.69 647.50 C428.21,652.75 428.60,654.30 428.83,652.00 C429.39,646.37 427.92,632.00 426.78,632.00 C426.15,632.00 425.97,633.45 426.33,635.75 C426.65,637.81 427.26,643.10 427.69,647.50 ZM 442.84 781.87 C444.30,782.40 446.51,782.88 447.75,782.92 C451.80,783.06 450.11,781.11 444.82,779.54 C444.41,779.42 444.03,779.30 443.67,779.20 C440.54,778.26 439.49,777.95 439.29,778.23 C439.19,778.38 439.31,778.67 439.49,779.12 C439.53,779.22 439.57,779.33 439.62,779.45 C439.92,780.24 441.37,781.33 442.84,781.87 ZM 879.10 625.09 C880.88,626.21 882.13,626.20 883.94,625.06 C885.13,624.31 885.15,623.88 884.06,622.58 C883.34,621.71 881.90,621.00 880.85,621.00 C878.46,621.00 877.23,623.90 879.10,625.09 ZM 96.99 760.03 C94.04,761.90 92.00,760.97 92.00,757.77 C92.00,756.26 92.47,756.01 94.25,756.54 C97.66,757.58 98.73,758.93 96.99,760.03 ZM 782.82 593.17 C782.93,594.72 782.63,596.00 782.14,596.00 C780.60,596.00 778.94,593.32 779.53,591.79 C780.48,589.31 782.59,590.19 782.82,593.17 ZM 796.46 599.94 C797.33,601.34 795.21,601.21 791.54,599.65 C789.73,598.88 789.01,598.11 789.70,597.68 C791.01,596.88 795.49,598.37 796.46,599.94 ZM 294.00 739.19 C294.00,739.63 293.40,740.00 292.67,740.00 C291.20,740.00 288.33,735.34 289.23,734.44 C289.87,733.80 294.00,737.92 294.00,739.19 ZM 459.03 445.82 C460.27,446.83 461.10,448.20 460.88,448.87 C460.62,449.63 459.36,448.94 457.55,447.05 C454.37,443.73 455.40,442.88 459.03,445.82 ZM 889.99 555.03 C887.88,556.36 887.00,556.22 887.00,554.56 C887.00,552.52 888.96,551.56 890.33,552.93 C891.20,553.80 891.12,554.31 889.99,555.03 ZM 339.82 231.07 C339.64,232.87 339.01,234.51 338.42,234.70 C337.74,234.92 337.51,233.92 337.78,232.01 C338.40,227.81 340.22,226.96 339.82,231.07 ZM 897.35 561.47 C897.95,563.04 896.71,564.37 895.64,563.31 C894.69,562.35 894.87,560.00 895.89,560.00 C896.38,560.00 897.04,560.66 897.35,561.47 ZM 425.02 625.75 C425.01,626.44 425.45,627.00 426.00,627.00 C426.55,627.00 426.99,625.76 426.98,624.25 C426.97,622.11 426.76,621.83 426.00,623.00 C425.47,623.83 425.02,625.06 425.02,625.75 Z" fill="rgb(23,36,46)"/>
<path d="M 0.80 847.48 C0.42,847.09 0.07,656.25 0.03,423.38 L 0.00 268.35 L 0.00 0.00 L 1023.00 0.00 L 1022.79 275.25 C1022.68,422.10 1022.35,537.33 1022.03,537.33 C1022.02,537.33 1022.01,537.22 1022.00,537.00 L 1021.41 523.50 L 1021.18 538.50 C1021.01,549.26 1020.65,553.01 1019.92,551.75 C1019.36,550.79 1018.25,550.00 1017.45,550.00 C1015.48,550.00 1015.61,547.37 1017.61,546.60 C1018.93,546.09 1019.09,545.11 1018.51,541.24 C1018.12,538.63 1017.48,536.28 1017.08,536.00 C1016.68,535.72 1016.06,534.71 1015.71,533.75 C1014.40,530.21 1013.00,532.11 1013.00,537.43 C1013.00,540.42 1012.54,544.08 1011.97,545.57 C1010.99,548.15 1010.87,548.19 1009.04,546.53 C1006.74,544.45 1006.13,544.77 1002.59,549.87 C999.93,553.71 999.84,554.28 999.59,569.06 C999.38,581.92 999.08,584.47 997.67,585.50 C996.75,586.17 996.00,587.23 996.00,587.85 C996.00,588.47 994.76,590.74 993.25,592.89 C991.37,595.58 989.56,596.96 987.50,597.29 C982.93,598.02 982.00,596.59 982.00,588.88 C982.00,584.96 981.57,582.00 981.00,582.00 C977.36,582.00 975.17,580.32 974.82,577.25 C974.63,575.61 973.89,574.50 973.00,574.50 C971.86,574.50 971.43,575.98 971.21,580.64 C970.99,585.20 970.41,587.23 968.96,588.54 C967.88,589.51 966.98,591.25 966.96,592.40 C966.90,595.46 961.52,601.41 959.52,600.64 C958.27,600.17 957.97,598.92 958.20,595.26 C958.43,591.58 958.16,590.50 957.01,590.50 C956.20,590.50 955.36,591.40 955.16,592.50 C954.60,595.50 953.02,597.00 950.44,597.00 C948.56,597.00 948.07,596.39 947.81,593.76 C947.43,589.80 944.67,588.88 942.93,592.13 C942.27,593.37 941.50,598.32 941.23,603.13 C940.77,611.12 940.48,612.12 937.90,614.60 L 935.06 617.31 L 935.68 628.01 C936.44,641.33 935.86,644.25 932.60,643.44 C930.63,642.94 930.07,643.36 929.12,646.07 C928.51,647.85 928.00,650.30 928.00,651.53 C928.00,654.15 925.61,656.45 923.66,655.70 C922.19,655.14 920.64,648.12 921.08,644.00 C921.22,642.62 921.38,633.67 921.42,624.11 C921.50,607.71 921.39,606.66 919.50,605.61 C916.63,604.02 915.91,602.78 916.47,600.39 C916.78,599.09 916.23,597.62 915.05,596.54 C913.77,595.39 913.15,593.53 913.18,591.00 C913.28,583.92 911.42,583.25 907.63,588.98 C905.40,592.35 905.00,594.07 904.98,600.23 C904.96,605.83 904.52,608.07 903.04,609.99 C900.75,612.97 900.20,612.03 899.78,604.50 L 899.50 599.50 L 884.50 598.50 L 883.37 595.00 C882.37,591.92 881.83,591.50 878.87,591.50 C876.13,591.50 874.68,590.61 871.07,586.69 C867.07,582.36 866.54,582.06 865.57,583.69 C864.98,584.69 864.28,590.67 864.00,597.00 C863.60,606.30 863.21,608.50 862.01,608.50 C861.19,608.50 860.29,607.34 860.01,605.92 C859.34,602.53 854.61,597.00 852.38,597.00 C851.42,597.00 849.59,596.02 848.31,594.83 L 846.00 592.65 L 843.69 594.83 C842.35,596.08 840.08,597.00 838.32,597.00 C836.64,597.00 834.08,597.93 832.63,599.07 C827.72,602.94 826.54,601.57 826.21,591.68 L 825.92 582.87 L 823.21 583.19 C820.76,583.47 820.47,583.93 820.22,588.00 C820.06,590.47 819.70,593.16 819.41,593.97 C818.95,595.27 818.78,595.27 817.96,593.97 C817.45,593.16 817.02,592.91 817.02,593.42 C817.01,593.93 817.79,595.24 818.75,596.34 C819.71,597.44 819.94,598.01 819.25,597.61 C818.41,597.12 818.00,597.58 818.00,599.00 C818.00,600.21 818.45,600.84 819.04,600.48 C819.72,600.05 819.85,600.81 819.41,602.67 C818.40,606.95 817.23,607.61 815.89,604.65 C815.22,603.19 814.19,601.97 813.59,601.92 C812.99,601.88 811.60,601.68 810.51,601.48 C809.41,601.27 806.51,601.38 804.06,601.72 L 799.61 602.32 L 807.56 605.41 C811.93,607.11 816.06,608.87 816.75,609.31 C817.52,609.81 818.03,609.61 818.09,608.81 C818.14,608.09 818.60,608.94 819.11,610.70 C819.71,612.80 819.65,615.38 818.91,618.20 C818.29,620.57 817.56,624.41 817.29,626.75 C816.99,629.33 816.29,631.00 815.49,631.00 C814.78,631.00 813.50,632.91 812.66,635.25 C810.88,640.20 806.31,651.61 804.94,654.50 C804.42,655.60 802.07,661.22 799.71,667.00 C795.90,676.33 795.13,677.53 792.76,677.81 C791.30,677.98 789.06,677.56 787.80,676.87 L 785.50 675.62 L 787.92 675.04 C789.97,674.54 791.43,671.80 797.52,656.97 C801.48,647.36 807.25,633.95 810.35,627.17 C816.22,614.36 816.85,611.95 814.75,610.21 C813.91,609.51 810.36,607.99 806.72,606.64 C812.00,608.42 816.00,609.62 816.00,609.39 C816.00,608.62 808.01,605.44 797.45,602.01 C791.98,600.23 786.08,598.10 784.34,597.27 C781.28,595.83 779.00,596.15 779.00,598.03 C779.00,598.53 779.60,598.71 780.34,598.42 C781.08,598.14 782.24,598.58 782.92,599.40 C784.30,601.06 780.91,610.96 767.30,644.98 C760.47,662.07 760.05,663.56 761.65,664.73 C762.24,665.16 762.87,665.54 763.34,665.77 C762.70,665.63 762.06,665.51 761.50,665.40 C758.73,664.90 758.64,664.97 760.31,666.33 C761.73,667.49 761.98,668.60 761.45,671.41 C760.69,675.44 762.18,676.29 764.23,673.00 C764.92,671.90 766.03,671.00 766.69,671.00 C766.73,671.00 766.76,671.00 766.79,671.00 C766.35,671.04 766.00,671.40 766.00,671.84 C766.00,674.15 747.64,703.19 745.69,703.97 C744.48,704.45 742.22,706.23 740.67,707.92 C739.11,709.61 737.39,711.00 736.85,711.00 C736.32,711.00 732.32,714.56 727.97,718.91 C716.71,730.16 705.65,738.17 690.32,746.06 C692.09,745.00 693.54,743.97 694.63,743.02 C696.52,741.36 698.48,740.00 698.98,740.00 C699.48,740.00 701.60,738.42 703.69,736.50 C705.79,734.57 708.29,732.74 709.25,732.43 C710.21,732.12 711.00,731.42 711.00,730.87 C711.00,730.33 711.45,730.16 712.00,730.50 C712.55,730.84 713.00,730.47 713.00,729.67 C713.00,728.88 714.01,727.56 715.25,726.75 C719.02,724.27 730.00,712.69 730.00,711.20 C730.00,710.42 731.12,708.90 732.50,707.82 C733.88,706.74 735.00,705.42 735.00,704.89 C735.00,704.36 736.80,702.21 739.00,700.11 C741.32,697.90 743.00,695.38 743.00,694.09 C743.00,691.29 744.36,688.73 747.52,685.57 C748.89,684.21 750.00,682.64 750.00,682.09 C750.00,681.54 751.12,679.43 752.50,677.40 C755.52,672.95 755.65,670.65 753.00,668.00 C750.39,665.39 750.39,659.51 753.00,655.23 C756.31,649.81 755.92,649.47 746.75,649.79 C738.64,650.08 738.44,650.03 734.96,646.79 C733.01,644.98 729.90,641.55 728.06,639.17 L 724.71 634.84 L 718.60 635.33 C715.25,635.60 710.99,636.15 709.15,636.54 C706.30,637.15 705.42,636.86 703.32,634.59 C701.69,632.83 700.22,632.11 699.02,632.49 C697.74,632.90 696.25,631.95 693.98,629.29 C691.21,626.03 690.86,625.85 691.48,628.00 C691.87,629.38 692.72,632.38 693.37,634.68 C694.02,636.97 695.24,639.67 696.08,640.68 C699.14,644.35 702.96,650.59 704.03,653.67 C705.57,658.07 702.27,665.44 696.17,671.21 C693.60,673.64 689.65,677.63 687.39,680.07 C685.12,682.51 681.41,685.99 679.14,687.81 C676.86,689.62 675.00,691.73 675.00,692.48 C675.00,693.23 671.51,696.85 667.25,700.51 C660.10,706.65 659.21,707.13 655.77,706.68 C653.71,706.41 648.31,704.03 643.77,701.39 C633.70,695.55 624.89,691.07 623.37,691.03 C622.75,691.01 621.68,690.32 620.98,689.48 C619.03,687.13 612.81,684.51 610.03,684.88 C608.66,685.06 605.27,686.63 602.52,688.37 C599.76,690.11 596.60,692.01 595.50,692.59 C594.40,693.17 592.15,694.36 590.50,695.23 C584.31,698.51 579.64,700.22 575.14,700.86 C572.59,701.23 570.53,701.97 570.56,702.51 C570.65,704.18 568.86,705.49 566.27,705.65 C562.53,705.88 561.87,707.11 560.35,716.56 C559.58,721.36 557.68,728.48 556.13,732.39 C554.57,736.30 552.99,741.47 552.62,743.88 C552.24,746.28 550.79,750.20 549.40,752.58 C547.29,756.18 546.16,757.06 542.68,757.79 C540.38,758.28 538.10,758.32 537.60,757.89 C537.11,757.46 533.73,757.38 530.10,757.71 C525.25,758.16 523.03,758.85 521.73,760.34 C520.37,761.89 519.68,762.08 518.78,761.18 C516.28,758.68 509.95,760.76 509.43,764.26 C509.14,766.25 516.68,768.36 531.03,770.31 C522.01,769.12 513.46,767.46 504.23,765.13 L 506.42 763.08 C507.65,761.92 508.98,761.31 509.38,761.71 C509.78,762.11 509.81,761.67 509.45,760.72 C509.02,759.60 509.27,759.00 510.17,759.00 C511.61,759.00 513.81,756.79 516.34,752.82 C517.15,751.54 518.74,746.67 519.87,742.00 C523.78,725.82 524.90,713.64 525.12,685.00 C525.44,642.28 522.08,605.32 515.49,579.00 C514.73,575.97 513.85,572.26 513.54,570.75 C513.18,569.05 512.30,567.99 511.23,567.97 C509.60,567.94 509.60,567.86 511.25,566.61 C513.46,564.93 513.44,564.25 510.97,556.92 C508.87,550.67 509.02,549.00 511.69,549.00 C512.45,549.00 512.55,548.72 511.98,548.10 C512.14,548.10 512.29,548.04 512.41,547.92 C513.07,547.27 507.21,529.85 501.52,515.50 C481.68,465.54 455.14,437.03 411.66,418.99 L 403.82 415.74 L 410.66 408.79 C428.87,390.31 454.49,376.97 482.50,371.40 C496.11,368.68 527.11,368.86 540.00,371.72 C568.48,378.04 589.98,389.98 611.60,411.47 C625.24,425.04 631.31,433.61 639.96,451.50 C649.48,471.18 652.86,485.10 653.73,508.17 C654.29,522.88 653.30,535.53 651.95,531.00 C651.28,528.76 651.19,528.72 651.10,530.64 C650.94,534.03 644.32,559.11 642.09,564.77 C634.24,584.69 621.39,603.94 606.89,617.50 C603.95,620.25 601.14,622.79 598.41,625.13 C600.51,622.95 602.85,619.56 602.37,618.79 C601.95,618.11 602.16,617.98 602.91,618.44 C604.39,619.36 617.37,606.61 616.77,604.82 C615.87,602.12 613.74,603.21 606.80,609.93 C602.78,613.81 599.18,616.99 598.78,617.00 C598.15,617.00 596.52,618.39 589.50,624.92 C588.40,625.94 586.45,627.10 585.18,627.48 C583.78,627.90 583.06,628.72 583.38,629.54 C583.74,630.47 583.37,630.71 582.20,630.29 C581.26,629.96 580.84,630.05 581.25,630.51 C582.32,631.68 579.06,635.00 576.85,635.00 C575.83,635.00 575.00,635.45 575.00,636.00 C575.00,636.55 574.66,636.92 574.25,636.83 C573.17,636.57 567.63,639.28 566.77,640.48 C566.36,641.04 566.06,641.95 566.09,642.50 C566.13,643.05 566.39,642.93 566.66,642.24 C566.94,641.55 567.65,641.28 568.24,641.65 C568.82,642.01 569.87,641.53 570.57,640.58 C571.26,639.63 572.43,638.71 573.17,638.55 C579.61,637.12 581.14,636.48 583.10,634.39 C584.34,633.08 586.02,632.00 586.83,632.00 C587.64,632.00 589.79,630.88 591.59,629.50 C593.39,628.12 595.30,627.00 595.83,627.00 C596.00,627.00 596.21,626.92 596.46,626.79 C578.61,641.73 564.07,648.47 540.22,653.86 C530.24,656.12 528.87,656.69 528.35,658.75 C528.02,660.04 528.00,661.33 528.30,661.63 C529.05,662.38 542.97,659.43 552.30,656.54 C557.88,654.81 560.20,654.46 560.44,655.31 C560.63,655.96 562.00,660.55 563.49,665.50 C568.50,682.13 568.83,683.48 569.31,689.70 C569.33,689.87 569.34,690.04 569.35,690.20 C569.55,692.65 569.66,694.11 569.25,695.41 C568.59,697.44 566.63,699.05 561.59,703.35 C558.92,705.62 557.94,707.10 558.51,708.01 C559.14,709.03 559.50,708.87 560.07,707.33 C560.48,706.22 562.32,704.73 564.16,704.01 C575.24,699.65 594.58,691.24 601.00,687.98 C605.12,685.88 609.91,683.88 611.64,683.53 C615.05,682.83 617.29,683.89 642.00,697.89 C649.02,701.87 655.70,704.98 657.25,704.99 C659.37,705.00 662.67,702.50 671.75,694.06 C691.60,675.57 702.99,662.25 703.00,657.50 C703.00,655.82 696.61,644.10 691.00,635.49 C685.13,626.48 680.70,617.94 680.26,614.79 C679.84,611.76 680.84,608.66 685.76,597.79 C689.07,590.48 693.29,580.12 695.14,574.77 C699.02,563.55 697.04,564.91 718.00,558.98 C744.10,551.59 748.63,550.07 750.39,548.12 C751.42,546.98 752.57,543.17 753.18,538.85 C754.45,529.85 753.61,490.04 752.03,484.77 C750.88,480.90 748.99,479.95 737.50,477.43 C732.61,476.35 706.74,468.99 703.70,467.81 C700.30,466.48 699.03,464.11 695.52,452.50 C694.03,447.55 690.15,437.75 686.90,430.73 C683.51,423.40 681.00,416.56 681.00,414.69 C681.00,412.38 683.58,407.05 689.82,396.46 C694.68,388.23 699.85,379.75 701.32,377.61 C702.01,376.62 702.57,375.71 703.00,374.83 C702.74,375.53 702.43,376.28 702.07,377.10 C699.45,382.95 700.34,384.70 703.96,380.81 C705.59,379.07 706.00,377.28 706.00,372.03 C706.00,366.20 705.59,364.80 702.50,359.97 C698.08,353.05 678.32,333.94 676.37,334.69 C675.38,335.07 677.14,337.53 682.23,342.88 C690.59,351.68 699.90,362.37 702.33,365.97 C703.51,367.72 704.03,369.29 703.88,371.22 C703.78,366.33 698.36,360.20 683.09,344.62 C666.80,328.01 659.81,322.00 656.77,322.00 C655.64,322.00 647.47,326.01 638.61,330.91 C629.75,335.82 619.92,341.08 616.77,342.61 L 611.04 345.40 L 598.77 339.24 C584.82,332.25 579.43,329.87 569.50,326.31 C565.65,324.93 561.99,323.28 561.37,322.65 C559.88,321.14 557.95,314.87 553.00,295.50 C547.90,275.53 546.63,272.79 542.00,271.76 C540.08,271.32 530.62,270.70 521.00,270.36 C501.58,269.69 484.17,271.00 480.50,273.41 C477.89,275.12 477.11,277.46 471.06,301.53 C468.85,310.29 466.22,318.56 465.21,319.91 C464.20,321.27 461.38,323.00 458.94,323.77 C446.68,327.64 431.68,333.76 422.25,338.75 C417.05,341.50 414.30,343.14 411.44,343.34 C407.78,343.60 403.95,341.52 394.59,336.42 C393.77,335.97 392.91,335.50 392.00,335.01 C390.93,334.43 389.90,333.87 388.91,333.33 C374.09,325.26 368.37,322.15 363.72,323.32 C360.49,324.13 357.78,327.00 352.88,331.72 C347.91,336.52 344.24,340.58 344.73,340.74 C345.22,340.91 347.58,339.23 349.98,337.02 C352.37,334.81 354.60,333.01 354.92,333.02 C356.69,333.06 358.19,335.10 358.66,338.10 C358.95,339.97 359.85,343.30 360.66,345.50 C361.46,347.70 362.34,351.08 362.60,353.00 C362.87,354.92 363.71,358.08 364.46,360.00 C369.07,371.78 370.95,377.21 372.38,382.82 C373.27,386.29 375.07,391.01 376.38,393.32 C377.69,395.62 379.08,398.85 379.46,400.50 C379.84,402.15 381.10,404.52 382.27,405.77 C386.63,410.45 385.77,411.00 374.10,411.00 C360.74,411.00 359.44,411.69 360.87,418.04 C362.57,425.54 362.91,433.40 361.61,435.18 C360.64,436.51 359.61,436.65 355.96,435.95 C353.51,435.47 350.83,435.08 350.00,435.07 C346.79,435.05 351.52,436.75 359.50,438.50 C366.96,440.13 374.51,442.47 382.00,445.46 C372.78,441.81 363.27,439.05 353.79,437.35 C347.70,436.25 339.00,435.67 328.50,435.67 C311.46,435.65 306.13,436.54 292.78,441.60 C289.08,443.01 285.71,444.17 285.28,444.19 C282.92,444.29 268.00,456.62 268.00,458.46 C268.00,459.18 266.88,460.51 265.50,461.41 C264.12,462.31 263.00,463.71 263.00,464.52 C263.00,465.34 262.55,466.00 262.00,466.00 C261.45,466.00 261.00,466.64 261.00,467.43 C261.00,468.21 260.41,469.45 259.69,470.18 C254.34,475.57 244.84,509.85 246.71,516.99 C247.49,519.99 248.31,519.46 250.29,514.65 C250.83,513.33 251.55,511.84 252.41,510.23 C252.14,510.74 251.88,511.25 251.62,511.76 C248.99,516.95 246.50,526.24 244.73,537.26 C245.27,533.29 245.54,530.10 245.33,529.76 C244.41,528.20 242.38,531.51 242.82,533.85 C243.11,535.36 242.90,536.06 242.27,535.67 C241.61,535.26 241.43,536.65 241.77,539.67 C242.12,542.74 241.94,544.08 241.25,543.66 C240.55,543.22 240.23,549.79 240.28,564.26 C240.31,575.94 240.55,584.38 240.80,583.00 C241.22,580.67 241.30,580.64 242.05,582.50 C242.51,583.63 242.90,576.68 242.95,566.50 C242.97,563.11 243.06,559.46 243.20,555.93 C243.00,569.57 243.86,587.84 245.42,598.00 C246.88,607.53 249.71,622.41 250.51,624.75 C250.75,625.44 251.42,626.00 252.00,626.00 C253.38,626.00 253.55,625.29 254.93,614.00 C257.01,597.04 258.22,589.97 264.29,559.50 C273.48,513.31 274.13,508.90 273.38,498.25 C272.81,490.20 272.49,489.00 270.90,489.00 C267.76,489.00 261.70,495.28 256.31,503.61 C262.27,494.20 270.40,483.89 274.30,481.53 C279.23,478.53 280.38,479.99 279.67,488.37 C279.01,496.20 279.45,497.40 284.00,500.15 C291.07,504.44 299.22,504.38 302.27,500.03 C304.74,496.50 313.46,486.58 317.50,482.71 C324.13,476.36 336.03,468.70 339.13,468.78 C342.69,468.89 353.39,475.14 363.00,482.74 C363.87,483.43 364.74,484.14 365.60,484.86 C365.36,484.70 365.12,484.56 364.91,484.45 C362.33,483.12 362.11,483.21 359.86,486.52 C358.56,488.43 357.20,489.99 356.83,489.99 C356.46,490.00 352.99,492.91 349.11,496.47 C345.23,500.03 340.36,504.02 338.28,505.34 C332.24,509.17 327.20,514.28 325.54,518.25 C324.69,520.28 324.00,522.19 324.00,522.49 C324.00,524.31 333.29,532.67 337.50,534.64 C343.26,537.34 347.83,537.55 353.50,535.39 C355.70,534.55 359.29,533.42 361.47,532.88 C363.65,532.33 367.03,530.90 368.97,529.70 C374.31,526.37 379.95,524.00 382.54,524.00 C383.82,524.00 386.01,523.57 387.40,523.04 C389.22,522.35 390.93,522.49 393.47,523.55 C397.96,525.43 398.03,524.31 393.80,517.59 C393.76,517.53 393.72,517.47 393.68,517.41 C399.75,526.87 405.06,537.23 409.37,548.17 C412.14,555.19 412.51,557.00 411.20,557.00 C410.76,557.00 409.45,554.75 408.29,552.00 C407.12,549.25 405.39,546.70 404.43,546.34 C402.86,545.73 385.00,551.09 382.50,552.92 C381.95,553.32 377.23,555.36 372.00,557.46 C365.13,560.22 361.61,562.28 359.28,564.89 L 356.05 568.50 L 349.32 565.00 C344.90,562.71 339.25,558.30 332.91,552.21 C323.89,543.56 318.68,540.31 316.26,541.86 C314.75,542.83 309.00,554.04 309.00,556.03 C309.00,556.99 308.33,559.06 307.51,560.64 C306.68,562.21 305.74,565.08 305.42,567.00 C305.09,568.92 304.19,571.92 303.41,573.65 C302.64,575.38 302.00,577.59 302.00,578.55 C302.00,580.13 298.96,586.76 293.59,596.90 C291.56,600.75 290.81,603.68 288.49,617.00 C286.50,628.40 286.45,657.51 288.41,662.73 C289.19,664.80 290.08,669.26 290.39,672.64 C290.77,676.81 292.05,680.99 294.39,685.65 C296.29,689.43 298.17,693.87 298.57,695.51 C298.98,697.16 300.14,699.57 301.15,700.88 C302.17,702.20 303.00,703.93 303.00,704.73 C303.00,705.53 303.64,707.39 304.43,708.85 C307.32,714.19 310.72,722.68 311.38,726.19 C311.75,728.18 312.72,730.35 313.53,731.02 C314.34,731.69 315.00,733.11 315.00,734.17 C315.00,735.23 316.84,740.42 319.09,745.71 C321.34,750.99 323.43,756.93 323.75,758.91 C324.06,760.88 325.15,764.45 326.16,766.83 C326.24,767.03 326.32,767.22 326.40,767.41 C327.53,770.05 328.02,771.20 327.73,771.44 C327.51,771.63 326.82,771.27 325.59,770.63 C325.48,770.57 325.37,770.51 325.25,770.45 C321.48,768.48 321.31,768.54 320.04,772.38 C318.61,776.72 315.78,779.25 312.84,778.83 C310.24,778.46 309.53,776.35 310.41,771.61 C310.85,769.28 311.59,768.38 313.15,768.26 C318.01,767.90 317.35,766.14 309.01,757.30 C304.45,752.46 300.10,748.14 299.35,747.70 C297.20,746.43 295.77,747.96 296.48,750.76 C297.24,753.80 295.82,754.96 291.32,754.98 C287.36,755.00 285.00,752.74 285.00,748.93 C285.00,745.27 283.63,745.22 280.36,748.75 C277.95,751.36 277.25,751.53 266.66,752.00 L 255.50 752.50 L 255.18 756.49 C254.67,762.72 254.08,763.00 241.58,763.00 C229.43,763.00 228.00,762.45 228.00,757.80 C228.00,755.00 227.99,755.00 221.07,755.00 C214.64,755.00 214.12,754.84 213.82,752.75 C213.60,751.22 212.70,750.39 211.00,750.15 C207.56,749.68 206.00,748.19 206.00,745.38 C206.00,743.69 205.44,743.00 204.06,743.00 C202.99,743.00 201.84,743.45 201.50,744.00 C200.32,745.90 196.14,744.99 193.33,742.21 C191.77,740.68 188.93,738.35 187.00,737.04 C185.07,735.72 182.67,733.80 181.66,732.77 C177.11,728.12 173.87,735.20 177.94,740.91 C179.07,742.50 180.00,744.56 180.00,745.47 C180.00,747.88 181.97,751.19 184.66,753.31 C188.87,756.62 190.09,758.20 190.67,761.08 C190.98,762.64 192.98,765.81 195.12,768.13 C198.78,772.09 200.10,776.20 198.11,777.43 C197.00,778.12 195.33,776.12 194.85,773.51 C194.60,772.20 193.44,771.34 191.49,771.00 C189.15,770.59 188.26,769.73 187.37,766.99 C185.89,762.37 182.35,761.59 181.45,765.69 C180.41,770.41 179.83,771.66 179.30,770.25 C179.04,769.56 177.82,769.00 176.57,769.00 C175.33,769.00 173.50,768.10 172.50,767.00 C171.50,765.90 169.63,765.00 168.35,765.00 C166.51,765.00 166.00,764.46 166.00,762.50 C166.00,761.12 166.45,760.00 167.00,760.00 C168.52,760.00 168.20,756.41 166.56,755.05 C165.54,754.20 162.76,754.06 157.06,754.56 C149.44,755.22 149.00,755.39 149.00,757.63 C149.00,759.75 149.45,760.00 153.25,760.02 C158.85,760.04 160.87,761.24 159.03,763.47 C158.02,764.69 156.29,765.02 152.09,764.80 L 146.50 764.50 L 145.43 760.08 C144.76,757.29 143.65,755.37 142.43,754.90 C141.25,754.43 141.06,754.11 141.94,754.07 C142.97,754.02 142.76,753.43 141.20,751.97 C140.00,750.86 138.72,748.72 138.35,747.22 C137.40,743.38 134.81,740.07 132.72,740.03 C130.16,739.99 129.57,742.46 130.68,748.58 C131.21,751.53 131.29,754.31 130.84,754.76 C130.40,755.20 129.92,765.89 129.77,778.52 L 129.50 801.47 L 126.84 802.75 C125.38,803.45 123.73,805.34 123.17,806.95 C122.60,808.58 120.78,810.58 119.03,811.48 C117.32,812.37 115.52,814.14 115.03,815.43 C114.25,817.48 113.33,817.81 107.32,818.23 C99.46,818.77 97.78,817.92 98.20,813.59 C98.45,811.04 99.02,810.42 101.50,809.99 C103.89,809.58 104.50,808.98 104.50,806.99 C104.50,805.09 103.91,804.42 102.00,804.18 C98.99,803.79 97.00,801.45 97.00,798.31 C97.00,796.14 96.61,796.00 90.69,796.00 C83.72,796.00 81.31,794.78 80.82,791.00 C80.58,789.12 79.82,788.42 77.75,788.18 L 75.00 787.87 L 74.90 797.18 C74.77,809.27 74.16,811.41 70.71,811.82 C68.71,812.05 67.85,812.83 67.42,814.82 C66.42,819.38 66.10,820.03 64.49,820.64 C62.36,821.46 59.18,818.38 58.81,815.15 C58.52,812.70 58.09,812.48 53.24,812.20 C47.07,811.84 45.68,813.50 48.35,818.02 C49.26,819.55 50.00,821.76 50.00,822.93 C50.00,824.26 50.92,825.40 52.47,825.99 C55.47,827.13 56.69,831.19 55.09,834.70 C54.09,836.89 53.46,837.17 50.61,836.71 C46.30,836.01 42.00,832.01 42.00,828.70 C42.00,827.29 41.45,824.86 40.78,823.32 C40.04,821.63 39.54,815.74 39.53,808.64 L 39.50 796.78 L 32.50 794.50 L 31.50 779.50 L 28.35 779.19 C24.65,778.83 24.03,777.32 24.01,768.47 C24.00,762.90 23.78,762.30 21.16,760.75 C19.26,759.63 17.16,759.26 14.83,759.64 C9.96,760.43 8.00,758.23 8.00,751.99 C8.00,747.40 6.81,744.88 5.59,746.86 C5.28,747.35 4.77,755.79 4.43,765.62 C4.10,775.46 3.42,786.20 2.92,789.50 C1.76,797.19 1.75,804.28 2.90,803.56 C4.14,802.79 4.99,805.40 4.01,806.99 C3.40,807.97 3.08,807.82 2.72,806.40 C2.45,805.35 2.21,806.75 2.19,809.50 C2.15,813.14 2.37,813.96 3.00,812.50 C3.61,811.07 3.85,812.08 3.81,816.00 C3.77,820.54 3.63,820.97 3.00,818.50 C2.54,816.70 2.27,820.71 2.31,828.50 L 2.38 841.50 L 3.62 822.50 L 3.79 833.50 C3.90,840.41 3.63,843.97 3.06,843.07 C2.39,842.01 2.07,842.49 1.83,844.91 C1.65,846.72 1.19,847.87 0.80,847.48 ZM 284.25 304.55 C313.21,294.84 328.95,291.00 339.92,290.98 C348.19,290.96 356.43,289.95 357.47,288.84 C357.65,288.65 358.77,281.98 359.97,274.00 C363.32,251.76 370.10,226.88 377.28,210.50 C384.90,193.10 388.58,186.46 398.87,171.50 C407.41,159.07 408.26,157.94 412.18,153.62 C415.84,149.60 416.20,148.00 413.44,148.00 C410.88,148.00 411.87,143.16 415.50,138.00 C417.42,135.26 419.00,132.54 419.00,131.96 C419.00,131.37 420.35,130.43 422.00,129.85 C423.98,129.16 425.05,128.07 425.15,126.65 C425.24,125.47 425.35,123.93 425.41,123.24 C425.65,120.42 440.01,108.47 449.00,103.61 C450.92,102.56 453.40,100.94 454.50,100.00 C458.49,96.58 473.23,89.69 487.62,84.51 C511.45,75.93 533.03,72.78 554.50,74.74 C561.10,75.35 566.69,75.64 566.93,75.40 C567.17,75.16 566.81,74.41 566.13,73.73 C565.92,73.52 565.42,73.34 564.57,73.19 C564.85,73.22 565.08,73.26 565.25,73.30 C569.66,74.23 570.21,72.81 567.01,68.74 C563.72,64.56 557.03,63.50 534.00,63.50 C516.13,63.50 512.15,63.80 503.00,65.85 C489.73,68.82 466.61,75.87 466.17,77.08 C465.98,77.59 464.82,78.00 463.57,78.00 C460.97,78.00 451.90,81.04 447.50,83.39 C445.85,84.27 443.98,84.99 443.34,84.99 C441.01,85.01 411.30,98.26 395.00,106.56 C362.70,123.01 340.91,138.21 322.44,157.18 C309.95,170.02 305.43,175.70 294.78,192.00 C283.04,209.97 272.21,231.69 270.35,241.02 L 269.69 244.31 L 275.49 243.71 C278.68,243.38 281.76,242.64 282.34,242.06 C282.92,241.48 284.10,241.00 284.95,240.99 C286.97,240.98 300.37,226.40 305.53,218.60 C307.75,215.24 311.57,209.86 314.03,206.62 C316.49,203.39 319.16,199.79 319.96,198.62 C330.74,183.01 348.15,162.04 359.14,151.44 C370.59,140.39 409.57,111.17 427.31,100.32 C430.16,98.58 435.73,95.09 439.68,92.57 C443.63,90.06 447.57,88.00 448.44,88.00 C449.32,88.00 452.39,86.68 455.27,85.06 C458.14,83.45 463.65,81.39 467.50,80.49 C471.35,79.60 475.28,78.44 476.24,77.93 C477.19,77.42 478.77,77.00 479.74,76.99 C480.71,76.99 482.65,76.38 484.07,75.65 C485.48,74.91 487.93,73.98 489.51,73.59 C491.09,73.19 493.99,72.16 495.94,71.30 C502.59,68.37 515.47,67.52 515.50,70.00 C515.51,71.09 511.79,72.48 502.01,75.05 C485.19,79.47 477.00,82.57 460.50,90.74 C448.98,96.44 431.00,107.32 431.00,108.60 C431.00,109.22 433.83,107.71 443.50,101.92 C453.48,95.94 464.50,90.52 475.79,85.95 C470.32,88.21 464.87,90.70 459.41,93.45 C417.80,114.41 385.54,146.89 366.00,187.51 C355.04,210.31 346.13,240.89 341.12,273.00 L 339.48 283.50 L 334.59 283.81 C331.35,284.02 329.42,283.68 328.89,282.82 C328.24,281.77 327.82,281.83 326.79,283.09 C326.08,283.96 322.58,285.44 319.00,286.37 C307.09,289.49 275.38,299.92 266.44,303.67 L 257.62 307.36 L 261.06 308.60 C262.95,309.29 265.29,309.88 266.25,309.92 C267.21,309.97 275.31,307.55 284.25,304.55 ZM 401.78 454.92 C410.93,460.05 419.78,466.09 428.00,472.88 C432.88,476.91 433.16,477.04 430.50,473.97 C428.85,472.07 427.15,470.36 426.73,470.17 C426.06,469.87 423.00,463.47 423.00,462.38 C423.00,462.17 424.36,462.00 426.03,462.00 C427.70,462.00 430.70,461.32 432.70,460.48 C434.70,459.65 439.97,458.75 444.42,458.49 C448.86,458.24 453.49,457.82 454.70,457.58 C458.77,456.76 463.68,458.89 466.62,462.77 C468.18,464.82 471.22,468.43 473.39,470.79 C477.22,474.97 479.09,478.11 488.54,496.35 C493.76,506.43 500.69,522.98 505.03,535.74 C506.50,540.09 508.24,543.79 509.71,545.98 C508.50,544.54 507.21,542.26 506.50,540.24 C505.59,537.63 503.98,534.15 502.92,532.50 C501.86,530.85 500.32,528.04 499.48,526.25 C497.53,522.05 495.51,522.13 493.43,526.50 C492.42,528.64 491.05,530.00 489.92,530.00 C488.90,530.00 486.58,531.31 484.75,532.92 C482.92,534.52 479.91,536.23 478.05,536.71 C475.23,537.44 474.65,538.07 474.52,540.54 C474.44,542.17 475.15,546.09 476.10,549.25 C479.31,559.99 476.26,555.06 472.07,542.75 C463.01,516.12 452.47,498.71 433.54,479.15 C424.62,469.92 413.73,461.69 401.78,454.92 ZM 426.62 615.25 C424.68,601.84 422.69,592.84 423.63,601.75 C424.02,605.39 423.83,607.00 423.03,607.00 C422.30,607.00 422.12,606.21 422.54,604.88 C422.92,603.67 422.73,602.45 422.10,602.06 C421.27,601.55 421.27,600.51 422.11,598.12 C422.95,595.70 422.94,593.32 422.07,588.69 C420.62,581.01 414.42,557.06 412.30,551.00 C410.23,545.06 403.43,531.02 398.36,521.90 C404.67,532.45 410.03,543.95 414.33,556.25 C415.42,559.39 417.00,558.09 417.00,554.07 C417.00,549.18 415.56,545.25 412.58,542.00 C411.32,540.62 408.58,536.58 406.49,533.00 C404.40,529.42 401.16,523.92 399.30,520.77 C397.43,517.62 395.28,513.84 394.51,512.37 C393.93,511.23 392.75,509.57 391.01,507.41 C393.85,510.76 395.51,512.60 397.57,513.64 C400.45,515.10 404.12,514.99 412.88,515.23 L 424.26 515.54 L 428.40 520.12 C435.64,528.10 447.29,555.05 450.02,570.08 C451.59,578.74 450.53,580.23 440.64,583.31 C436.16,584.70 431.07,586.13 429.32,586.49 C424.01,587.56 423.79,588.52 425.90,601.11 C427.97,613.45 429.47,627.00 428.76,627.00 C428.52,627.00 427.56,621.71 426.62,615.25 ZM 460.35 129.03 C466.89,127.68 474.11,126.99 481.85,126.98 C505.14,126.95 521.26,123.96 535.89,116.97 C543.66,113.25 557.57,104.08 559.21,101.59 C560.73,99.28 557.39,98.49 544.70,98.17 C522.40,97.62 499.42,102.48 473.66,113.17 C461.47,118.23 456.59,120.95 449.25,126.77 C444.32,130.67 443.76,132.52 447.75,131.65 C449.26,131.32 454.93,130.14 460.35,129.03 ZM 422.35 747.48 C422.03,746.65 422.26,744.73 422.85,743.23 C423.44,741.73 425.11,735.57 426.56,729.55 C428.87,719.95 432.97,710.83 434.53,711.82 C434.80,711.99 437.57,711.61 440.68,710.96 C449.44,709.14 457.49,709.35 459.58,711.44 C461.18,713.04 461.23,713.98 460.12,722.33 C458.63,733.48 455.09,748.00 453.85,748.00 C453.34,748.00 451.32,747.33 449.35,746.50 C444.62,744.52 441.11,744.63 431.62,747.02 C430.89,747.20 430.21,747.37 429.60,747.53 C424.63,748.79 423.38,749.11 422.87,748.63 C422.64,748.41 422.56,748.02 422.35,747.48 ZM 328.61 424.23 C325.52,414.67 321.00,395.00 321.00,391.08 C321.00,387.47 321.30,386.98 323.75,386.48 C325.26,386.18 328.98,385.16 332.00,384.21 L 337.50 382.50 L 331.75 382.20 C326.63,381.93 325.99,381.66 325.88,379.70 C325.80,378.17 325.63,378.00 325.33,379.15 C325.09,380.07 323.49,381.03 321.70,381.34 C312.22,382.94 307.09,384.09 303.50,385.40 C301.30,386.20 295.90,387.84 291.50,389.03 C279.84,392.20 256.13,401.22 255.55,402.72 C254.94,404.31 273.08,404.56 276.01,403.00 C277.26,402.32 278.09,402.33 278.51,403.01 C278.85,403.57 279.47,403.83 279.88,403.58 C281.20,402.76 314.94,393.00 316.45,393.00 C317.98,393.00 318.44,394.32 322.03,409.04 C323.93,416.82 327.31,428.38 328.75,432.00 C330.17,435.56 330.05,428.66 328.61,424.23 ZM 469.40 600.92 C469.73,598.84 469.57,597.02 469.04,596.83 C468.51,596.65 467.16,591.78 466.04,586.00 C464.04,575.65 462.80,571.01 456.89,551.68 C455.23,546.27 454.02,540.65 454.19,539.18 C454.47,536.74 454.88,537.10 458.66,543.08 C460.95,546.70 463.39,551.57 464.09,553.89 C464.78,556.22 466.21,558.58 467.26,559.14 C470.75,561.01 471.87,566.06 472.59,583.20 C473.34,600.93 472.96,604.67 470.42,604.67 C469.11,604.67 468.91,603.96 469.40,600.92 ZM 764.11 665.94 C765.04,664.99 769.99,652.46 780.49,624.50 C787.04,607.04 789.20,602.62 791.36,602.18 C792.03,602.05 795.69,603.00 800.24,604.45 C799.23,604.17 798.45,604.00 798.05,604.00 C797.11,604.00 795.84,605.01 795.22,606.25 C793.38,609.97 785.68,628.53 779.15,645.01 C771.52,664.26 769.69,667.43 766.70,666.58 C766.06,666.40 765.11,666.16 764.11,665.94 ZM 31.34 738.50 C31.08,725.99 30.19,722.02 27.39,720.96 C26.07,720.46 25.00,719.42 25.00,718.65 C25.00,716.37 22.73,715.14 20.25,716.08 C18.05,716.92 18.00,717.30 18.00,732.01 L 18.00 747.09 L 24.75 746.80 L 31.50 746.50 ZM 465.75 752.18 C464.24,752.01 463.00,751.33 463.01,750.68 C463.01,750.03 464.74,742.61 466.85,734.18 C469.53,723.49 471.34,718.22 472.83,716.72 C475.49,714.06 476.79,715.11 478.11,720.98 C479.03,725.10 478.70,729.45 476.98,735.50 C476.30,737.90 475.38,743.95 475.05,748.15 C474.94,749.61 468.31,752.48 465.75,752.18 ZM 56.00 794.21 C56.53,786.53 57.46,785.04 61.79,785.02 C64.03,785.00 64.07,784.82 63.79,775.25 C63.50,765.47 62.29,762.96 60.74,768.94 C60.30,770.62 59.29,772.00 58.48,772.00 C57.68,772.00 56.38,773.54 55.60,775.42 C54.81,777.30 53.23,779.34 52.08,779.95 C50.19,780.97 50.00,781.96 50.00,790.87 C50.00,796.26 50.32,800.99 50.71,801.38 C51.10,801.77 52.34,801.95 53.46,801.79 C55.25,801.54 55.56,800.59 56.00,794.21 ZM 688.00 619.07 C688.00,617.46 687.33,615.47 686.50,614.64 C685.67,613.82 685.00,612.72 685.00,612.19 C685.00,611.67 685.67,610.68 686.50,610.00 C687.70,609.00 688.33,609.03 689.65,610.13 C690.56,610.88 692.25,611.57 693.40,611.66 C694.56,611.74 697.19,612.14 699.25,612.54 L 703.00 613.26 L 703.00 608.25 C703.00,602.19 700.71,599.32 698.39,602.48 C697.63,603.53 697.00,604.75 697.00,605.19 C697.00,605.64 696.10,606.00 695.00,606.00 C693.55,606.00 693.00,605.33 693.00,603.56 C693.00,602.22 692.54,600.84 691.98,600.49 C691.42,600.14 691.22,599.45 691.54,598.94 C691.85,598.44 691.39,598.30 690.53,598.63 C687.93,599.63 683.80,607.75 683.32,612.79 C682.97,616.58 683.29,617.94 684.98,619.75 C687.69,622.66 688.00,622.59 688.00,619.07 ZM 434.75 795.43 C433.23,793.88 434.13,793.23 440.02,791.58 C449.16,789.01 454.86,786.27 452.73,785.45 C451.05,784.80 450.25,781.99 451.75,782.01 C452.90,782.03 461.98,784.79 466.79,786.59 C470.24,787.88 470.86,788.47 469.95,789.57 C469.16,790.51 467.52,790.76 464.65,790.38 C461.65,789.98 458.32,790.56 452.65,792.47 C444.22,795.31 435.97,796.68 434.75,795.43 ZM 559.50 799.88 C557.83,799.34 552.79,799.17 548.15,799.51 C541.95,799.96 539.99,799.82 540.52,798.96 C541.04,798.12 539.70,797.90 535.62,798.15 C532.53,798.34 530.00,798.19 530.00,797.81 C530.00,797.43 528.54,796.92 526.75,796.68 C524.96,796.44 526.65,796.50 530.50,796.81 C542.49,797.77 594.46,797.66 595.14,796.67 C595.51,796.13 597.84,796.06 600.64,796.50 C606.87,797.48 606.14,797.66 590.50,799.08 C571.78,800.77 562.92,801.00 559.50,799.88 ZM 502.84 764.78 C500.62,764.21 498.35,763.60 496.02,762.95 C482.61,759.21 481.57,759.22 479.96,763.09 C478.73,766.07 478.47,766.84 484.34,768.43 C480.94,767.64 478.55,767.15 478.47,767.25 C478.41,767.32 478.22,767.65 477.97,768.12 C477.99,768.02 478.00,767.93 478.00,767.85 C478.00,767.42 476.09,766.59 473.75,765.98 C471.41,765.38 465.45,763.57 460.50,761.95 C448.01,757.88 442.52,756.92 441.59,758.65 C441.59,758.63 441.60,758.61 441.61,758.59 C441.95,757.47 442.14,756.78 442.60,756.42 C443.36,755.84 444.84,756.22 448.95,757.25 L 449.42 757.37 C452.99,758.27 457.00,759.00 458.33,759.00 C460.51,759.00 464.38,760.41 473.65,764.58 L 473.72 764.61 C475.89,765.59 476.91,766.05 477.53,765.73 C478.10,765.44 478.33,764.51 478.80,762.75 C479.86,758.69 481.68,758.66 494.84,762.47 ZM 814.00 592.02 C815.33,591.18 815.33,590.91 814.00,589.62 C809.67,585.44 799.25,581.92 795.49,583.37 C792.81,584.39 797.69,588.52 801.44,588.40 C805.44,588.26 809.70,589.77 810.39,591.57 C811.03,593.23 811.91,593.34 814.00,592.02 ZM 408.38 764.09 C414.15,754.73 422.07,732.97 424.61,719.50 C425.17,716.56 425.47,716.10 425.75,717.74 C426.25,720.66 421.89,737.36 418.02,747.35 C414.73,755.81 408.09,767.85 405.52,769.98 C404.64,770.71 405.93,768.06 408.38,764.09 ZM 89.00 754.04 C89.00,753.52 87.28,751.23 85.19,748.96 C82.10,745.62 80.82,744.89 78.44,745.17 C76.06,745.44 75.50,745.98 75.50,747.99 C75.50,749.94 76.46,750.95 80.00,752.68 C84.75,755.00 89.00,755.65 89.00,754.04 ZM 816.08 600.27 C816.13,601.04 816.37,600.96 816.73,600.05 C817.55,597.96 810.70,592.39 804.96,590.49 C799.52,588.68 788.88,588.81 788.26,590.70 C787.99,591.54 788.89,591.73 791.30,591.34 C797.15,590.39 815.88,597.14 816.08,600.27 ZM 333.05 281.50 C333.08,286.56 334.79,279.76 335.93,270.00 C336.61,264.23 337.77,256.80 338.51,253.50 C339.26,250.20 340.62,243.91 341.55,239.52 C342.48,235.13 343.48,230.86 343.78,230.02 C344.08,229.18 343.98,228.80 343.57,229.17 C341.34,231.18 332.98,272.73 333.05,281.50 ZM 535.43 652.79 C536.46,651.33 536.65,650.25 535.99,649.59 C535.45,649.05 535.00,646.70 535.00,644.38 C535.00,637.10 533.27,634.92 531.16,639.56 C530.31,641.42 530.29,642.66 531.08,644.15 C531.68,645.27 531.89,647.31 531.54,648.68 C530.85,651.46 531.67,655.00 533.01,655.00 C533.49,655.00 534.58,654.01 535.43,652.79 ZM 285.00 727.80 C285.00,726.81 276.88,709.01 274.19,704.12 C272.86,701.69 271.56,702.40 271.29,705.69 C271.10,708.12 271.50,709.02 273.02,709.51 C274.11,709.85 275.00,710.63 275.00,711.24 C275.00,711.85 275.63,713.05 276.40,713.92 C278.71,716.53 281.72,722.43 282.46,725.82 C283.13,728.86 285.00,730.32 285.00,727.80 ZM 711.00 762.00 C711.00,761.45 711.44,761.00 711.99,761.00 C712.53,761.00 713.77,760.36 714.74,759.58 C720.59,754.87 738.00,742.23 738.00,742.69 C738.00,743.00 735.97,745.03 733.50,747.21 C731.02,749.39 729.22,751.54 729.49,751.98 C729.97,752.77 727.52,754.30 725.50,754.47 C724.95,754.52 721.71,756.46 718.30,758.78 C711.73,763.26 711.00,763.58 711.00,762.00 ZM 136.80 704.75 C136.54,699.27 136.25,698.50 134.50,698.50 C132.82,698.50 132.45,699.27 132.19,703.37 C131.80,709.45 132.38,711.00 135.02,711.00 C136.93,711.00 137.07,710.51 136.80,704.75 ZM 293.63 773.48 C292.95,771.70 296.28,768.00 298.57,768.00 C301.22,768.00 304.00,769.98 304.00,771.87 C304.00,774.48 303.04,775.04 300.89,773.70 C299.43,772.79 298.55,772.80 297.01,773.76 C294.50,775.33 294.34,775.32 293.63,773.48 ZM 559.50 647.00 C559.84,646.45 561.14,646.00 562.39,646.00 C565.18,646.00 566.03,645.24 565.32,643.40 C564.63,641.61 558.11,641.60 555.75,643.39 C553.13,645.38 553.53,648.00 556.44,648.00 C557.78,648.00 559.16,647.55 559.50,647.00 ZM 62.01 869.17 C61.45,868.98 61.00,867.98 61.00,866.94 C61.00,865.28 61.68,865.07 66.25,865.27 C70.73,865.48 71.50,865.80 71.50,867.48 C71.50,869.13 70.80,869.46 67.26,869.48 C64.92,869.49 62.56,869.35 62.01,869.17 ZM 500.54 599.75 C500.16,594.66 499.28,587.45 498.58,583.72 C497.87,579.98 497.61,576.74 497.99,576.51 C498.36,576.28 499.22,579.05 499.89,582.68 C501.24,590.03 502.60,609.00 501.77,609.00 C501.48,609.00 500.93,604.84 500.54,599.75 ZM 350.77 421.06 C354.35,418.46 356.91,414.58 355.79,413.46 C355.21,412.88 345.00,421.99 345.00,423.08 C345.00,424.65 346.55,424.11 350.77,421.06 ZM 566.06 746.06 C563.90,744.69 566.54,742.00 570.06,742.00 C573.40,742.00 574.65,743.52 572.96,745.54 C571.61,747.18 568.23,747.43 566.06,746.06 ZM 327.44 309.34 C327.00,323.73 328.47,319.48 329.46,303.50 C329.93,295.83 329.81,293.93 328.94,295.34 C328.31,296.35 327.64,302.65 327.44,309.34 ZM 549.51 743.25 C549.16,748.37 550.63,746.04 552.33,738.75 C554.23,730.61 554.37,729.00 553.16,729.00 C552.28,729.00 549.83,738.55 549.51,743.25 ZM 427.69 647.50 C427.26,643.10 426.65,637.81 426.33,635.75 C425.97,633.45 426.15,632.00 426.78,632.00 C427.92,632.00 429.39,646.37 428.83,652.00 C428.60,654.30 428.21,652.75 427.69,647.50 ZM 539.45 69.08 C538.89,69.99 535.72,70.36 534.92,69.61 C534.69,69.39 532.47,68.97 530.00,68.66 C527.53,68.35 525.05,68.03 524.50,67.94 C523.95,67.84 525.23,67.44 527.35,67.03 C531.66,66.19 540.32,67.67 539.45,69.08 ZM 442.84 781.87 C441.37,781.33 439.92,780.24 439.62,779.45 C439.57,779.33 439.53,779.22 439.49,779.12 C439.31,778.67 439.19,778.38 439.29,778.23 C439.49,777.95 440.54,778.26 443.67,779.20 C444.03,779.30 444.41,779.42 444.82,779.54 C450.11,781.11 451.80,783.06 447.75,782.92 C446.51,782.88 444.30,782.40 442.84,781.87 ZM 879.10 625.09 C877.23,623.90 878.46,621.00 880.85,621.00 C881.90,621.00 883.34,621.71 884.06,622.58 C885.15,623.88 885.13,624.31 883.94,625.06 C882.13,626.20 880.88,626.21 879.10,625.09 ZM 554.55 722.53 C554.12,727.99 555.61,726.58 556.86,720.33 C558.24,713.48 558.25,713.00 557.08,713.00 C556.07,713.00 554.98,717.10 554.55,722.53 ZM 96.99 760.03 C98.73,758.93 97.66,757.58 94.25,756.54 C92.47,756.01 92.00,756.26 92.00,757.77 C92.00,760.97 94.04,761.90 96.99,760.03 ZM 782.82 593.17 C782.59,590.19 780.48,589.31 779.53,591.79 C778.94,593.32 780.60,596.00 782.14,596.00 C782.63,596.00 782.93,594.72 782.82,593.17 ZM 796.46 599.94 C795.49,598.37 791.01,596.88 789.70,597.68 C789.01,598.11 789.73,598.88 791.54,599.65 C795.21,601.21 797.33,601.34 796.46,599.94 ZM 294.00 739.19 C294.00,737.92 289.87,733.80 289.23,734.44 C288.33,735.34 291.20,740.00 292.67,740.00 C293.40,740.00 294.00,739.63 294.00,739.19 ZM 459.03 445.82 C455.40,442.88 454.37,443.73 457.55,447.05 C459.36,448.94 460.62,449.63 460.88,448.87 C461.10,448.20 460.27,446.83 459.03,445.82 ZM 889.99 555.03 C891.12,554.31 891.20,553.80 890.33,552.93 C888.96,551.56 887.00,552.52 887.00,554.56 C887.00,556.22 887.88,556.36 889.99,555.03 ZM 548.55 67.41 C549.73,68.59 549.74,68.89 548.57,69.33 C547.81,69.62 546.41,69.29 545.46,68.59 C543.82,67.40 543.82,67.28 545.43,66.66 C546.39,66.30 547.77,66.62 548.55,67.41 ZM 339.82 231.07 C340.22,226.96 338.40,227.81 337.78,232.01 C337.51,233.92 337.74,234.92 338.42,234.70 C339.01,234.51 339.64,232.87 339.82,231.07 ZM 385.21 503.04 C377.36,493.58 368.11,484.46 360.98,479.50 C358.61,477.85 354.75,475.06 352.40,473.31 C350.48,471.87 347.67,470.03 345.57,468.80 C345.74,468.89 345.90,468.99 346.08,469.08 C349.15,470.75 355.00,474.62 359.08,477.68 C368.68,484.90 377.43,493.41 385.21,503.04 ZM 751.80 699.52 C759.27,687.82 767.81,671.83 766.95,671.03 C768.12,671.36 766.69,674.39 760.12,686.00 C757.46,690.69 754.69,695.20 751.80,699.52 ZM 582.93 780.31 C594.07,779.86 605.51,779.05 612.76,778.05 C635.77,774.90 659.24,768.35 679.43,759.79 C668.22,764.57 656.04,768.74 643.74,771.91 C622.25,777.45 605.48,779.83 582.93,780.31 ZM 897.35 561.47 C897.04,560.66 896.38,560.00 895.89,560.00 C894.87,560.00 894.69,562.35 895.64,563.31 C896.71,564.37 897.95,563.04 897.35,561.47 ZM 425.02 625.75 C425.02,625.06 425.47,623.83 426.00,623.00 C426.76,621.83 426.97,622.11 426.98,624.25 C426.99,625.76 426.55,627.00 426.00,627.00 C425.45,627.00 425.01,626.44 425.02,625.75 ZM 492.95 770.52 C509.73,774.43 523.78,777.01 538.27,778.76 C524.14,777.28 510.18,774.68 492.95,770.52 ZM 599.00 771.55 C607.53,770.79 621.40,768.77 629.83,767.07 C639.21,765.18 649.30,762.43 658.74,759.35 C635.24,767.20 609.58,771.67 582.54,772.59 C588.06,772.39 593.57,772.04 599.00,771.55 ZM 350.29 470.01 C352.43,471.34 354.99,473.02 358.03,475.09 C361.46,477.44 365.50,480.77 369.84,484.80 C363.77,479.40 356.16,473.69 350.29,470.01 ZM 714.29 740.40 C722.40,734.30 731.60,725.34 739.44,716.13 C731.56,725.60 723.11,733.76 714.29,740.40 ZM 392.31 515.30 C387.86,508.65 381.57,500.81 375.97,494.64 C381.82,500.81 387.31,507.75 392.31,515.30 ZM 476.94 770.06 L 476.06 771.75 L 475.45 771.55 C475.88,771.31 476.45,770.72 476.94,770.06 ZM 344.71 468.32 C344.58,468.24 344.45,468.17 344.32,468.10 C342.35,467.06 341.23,466.18 341.69,466.06 C341.47,466.24 342.70,467.15 344.71,468.32 ZM 376.94 491.76 C379.68,494.57 382.47,497.57 385.25,500.72 C382.90,498.10 380.12,495.11 376.94,491.76 ZM 450.72 763.66 L 450.23 763.51 C447.84,762.78 446.06,762.22 444.76,761.74 C446.35,762.26 448.39,762.92 450.72,763.66 ZM 343.22 466.30 C343.88,466.52 344.68,466.86 345.64,467.34 C344.72,466.88 343.90,466.53 343.22,466.30 Z" fill="rgb(36,52,64)"/>
<path d="M 642.00 697.80 C647.77,701.11 653.20,703.78 655.87,704.67 C653.18,703.78 647.70,701.12 642.00,697.89 C617.29,683.89 615.05,682.83 611.64,683.53 C609.91,683.88 605.12,685.88 601.00,687.98 C599.55,688.71 597.43,689.72 594.90,690.87 C600.87,688.06 605.90,685.42 607.88,683.87 C612.39,680.34 607.53,681.94 595.96,687.80 C589.66,690.99 579.89,695.54 574.25,697.91 C568.61,700.28 564.00,702.40 564.00,702.63 C564.00,703.60 570.87,701.21 579.24,697.78 C573.79,700.10 568.38,702.35 564.16,704.01 C562.32,704.73 560.48,706.22 560.07,707.33 C559.50,708.87 559.14,709.03 558.51,708.01 C557.94,707.10 558.92,705.62 561.59,703.35 C566.63,699.05 568.59,697.44 569.25,695.41 C569.66,694.11 569.55,692.65 569.35,690.20 L 569.35 690.20 C569.34,690.04 569.33,689.87 569.31,689.70 C568.83,683.48 568.50,682.13 563.49,665.50 C562.00,660.55 560.63,655.96 560.44,655.31 C560.20,654.46 557.88,654.81 552.30,656.54 C551.51,656.78 550.69,657.03 549.84,657.27 C586.46,646.39 620.32,619.15 637.55,586.65 C646.33,570.09 652.94,549.97 654.43,535.32 C654.83,531.31 654.28,532.96 652.63,540.62 C649.92,553.29 648.16,558.98 643.26,571.00 C638.96,581.56 634.70,589.14 632.21,590.66 C631.17,591.30 628.70,594.22 626.73,597.16 C621.88,604.37 611.12,616.39 604.18,622.33 C601.06,625.01 594.12,630.10 588.76,633.66 C585.91,635.54 581.91,637.87 577.51,640.27 C583.80,636.65 589.91,632.27 596.46,626.79 C597.00,626.48 597.69,625.88 598.41,625.13 C601.14,622.79 603.95,620.25 606.89,617.50 C621.39,603.94 634.24,584.69 642.09,564.77 C644.32,559.11 650.94,534.03 651.10,530.64 C651.19,528.72 651.28,528.76 651.95,531.00 C653.30,535.53 654.29,522.88 653.73,508.17 C652.86,485.10 649.48,471.18 639.96,451.50 C643.27,458.26 646.27,465.10 648.15,470.37 C650.01,475.57 650.84,477.12 650.47,474.67 C650.14,472.56 650.16,469.53 650.51,467.95 C651.03,465.60 651.83,464.93 654.82,464.33 C660.28,463.25 675.27,463.54 677.58,464.78 C678.68,465.37 682.94,466.11 687.04,466.43 C696.63,467.17 697.50,467.34 699.29,468.83 C700.11,469.51 710.17,472.54 721.64,475.57 C747.94,482.51 748.82,482.80 749.94,484.89 C750.45,485.84 751.37,494.02 751.99,503.06 C753.33,522.60 751.61,545.35 748.63,547.53 C747.72,548.19 742.60,549.95 737.24,551.43 C702.56,561.05 696.00,563.40 696.00,566.23 C696.00,568.10 687.07,589.82 682.11,600.00 C677.27,609.95 676.15,613.82 677.67,615.33 C678.73,616.39 678.99,616.13 678.76,614.25 C678.64,613.29 681.07,607.33 684.17,601.00 C687.27,594.67 691.76,584.00 694.15,577.28 C695.38,573.84 696.17,571.34 696.97,569.45 C696.44,570.84 695.90,572.56 695.14,574.77 C693.29,580.12 689.07,590.48 685.76,597.79 C680.84,608.66 679.84,611.76 680.26,614.79 C680.70,617.94 685.13,626.48 691.00,635.49 C692.54,637.86 694.15,640.47 695.66,643.03 C693.85,640.12 692.00,637.39 690.49,635.50 C688.73,633.30 685.60,628.58 683.54,625.00 C679.20,617.47 678.46,616.55 679.51,620.00 C679.93,621.38 681.50,624.30 683.00,626.50 C688.17,634.06 692.05,642.73 690.72,643.71 C690.05,644.21 685.45,646.36 680.50,648.50 C675.55,650.64 669.70,653.54 667.50,654.93 C665.30,656.33 662.37,657.98 660.98,658.59 C659.60,659.20 656.06,661.91 653.11,664.60 C647.04,670.16 647.24,669.94 642.47,676.00 C640.52,678.47 638.12,681.40 637.14,682.50 C636.16,683.60 635.06,685.29 634.71,686.25 C633.64,689.13 627.82,688.42 620.43,684.50 C616.80,682.58 613.16,681.00 612.33,681.00 C611.51,681.00 615.03,683.17 620.17,685.81 C625.30,688.46 635.12,693.85 642.00,697.80 ZM 495.47 505.37 C499.30,513.88 500.74,516.15 499.50,511.75 C498.51,508.21 497.64,506.17 492.55,495.50 C491.57,493.45 490.55,491.43 489.50,489.43 C493.79,497.41 497.77,506.07 501.52,515.50 C507.21,529.85 513.07,547.27 512.41,547.92 C512.29,548.04 512.14,548.10 511.98,548.10 C511.71,547.81 511.29,547.44 510.71,546.99 C510.40,546.74 510.06,546.39 509.71,545.98 C508.24,543.79 506.50,540.09 505.03,535.74 C500.69,522.98 493.76,506.43 488.54,496.35 C479.09,478.11 477.22,474.97 473.39,470.79 C471.22,468.43 468.18,464.82 466.62,462.77 C463.68,458.89 458.77,456.76 454.70,457.58 C453.49,457.82 448.86,458.24 444.42,458.49 C439.97,458.75 434.70,459.65 432.70,460.48 C430.70,461.32 427.70,462.00 426.03,462.00 C424.36,462.00 423.00,462.17 423.00,462.38 C423.00,463.47 426.06,469.87 426.73,470.17 C427.15,470.36 428.85,472.07 430.50,473.97 C433.16,477.04 432.88,476.91 428.00,472.88 C419.78,466.09 410.93,460.05 401.78,454.92 C395.44,451.33 388.80,448.15 382.00,445.46 L 381.99 445.46 C374.51,442.47 366.96,440.13 359.50,438.50 C351.52,436.75 346.79,435.05 350.00,435.07 C350.83,435.08 353.51,435.47 355.96,435.95 C359.61,436.65 360.64,436.51 361.61,435.18 C362.91,433.40 362.57,425.54 360.87,418.04 C359.44,411.69 360.74,411.00 374.10,411.00 C385.77,411.00 386.63,410.45 382.27,405.77 C381.10,404.52 379.84,402.15 379.46,400.50 C379.08,398.85 377.69,395.62 376.38,393.32 C375.07,391.01 373.27,386.29 372.38,382.82 C370.95,377.21 369.07,371.78 364.46,360.00 C363.71,358.08 362.87,354.92 362.60,353.00 C362.34,351.08 361.46,347.70 360.66,345.50 C359.85,343.30 358.95,339.97 358.66,338.10 C358.19,335.10 356.69,333.06 354.92,333.02 C354.60,333.01 352.37,334.81 349.98,337.02 C347.58,339.23 345.22,340.91 344.73,340.74 C344.24,340.58 347.91,336.52 352.88,331.72 C357.78,327.00 360.49,324.13 363.72,323.32 C364.90,323.02 366.14,323.00 367.59,323.26 C366.25,323.04 365.13,323.09 364.10,323.41 C361.79,324.11 359.87,326.10 356.78,329.11 C350.75,334.99 350.72,335.04 356.00,330.48 C360.21,326.85 362.31,324.98 364.61,324.70 C367.00,324.42 369.59,325.87 374.97,328.86 L 375.45 329.13 C390.82,337.69 391.20,337.97 397.41,345.24 C400.66,349.05 404.26,352.53 405.41,352.97 C406.56,353.42 409.52,355.52 412.00,357.65 C414.48,359.78 419.42,363.50 423.00,365.91 C436.18,374.81 443.13,383.58 438.42,385.39 C433.00,387.47 414.20,401.81 407.95,408.63 C402.14,414.98 402.23,415.94 408.08,409.94 C413.86,404.01 428.38,392.14 430.95,391.24 C431.80,390.94 433.17,390.17 434.00,389.54 C435.49,388.38 441.57,385.50 448.28,382.60 C433.94,389.32 421.08,398.21 410.66,408.79 L 403.82 415.74 L 411.66 418.99 C412.80,419.47 413.94,419.95 415.06,420.44 C426.17,424.87 436.77,430.95 446.58,438.42 C437.19,431.46 426.76,425.55 415.06,420.44 C410.62,418.67 406.09,417.15 401.50,415.92 C389.24,412.64 389.08,413.89 401.24,417.98 C416.24,423.03 425.33,427.27 436.15,434.28 C448.56,442.32 463.09,456.15 472.63,469.00 C475.28,472.58 478.47,476.85 479.70,478.50 C480.94,480.15 482.53,482.62 483.22,484.00 C483.92,485.38 486.08,488.80 488.04,491.62 C489.99,494.43 493.33,500.62 495.47,505.37 ZM 291.55 197.28 L 288.77 202.06 L 291.39 200.87 C292.83,200.21 295.90,197.16 298.22,194.09 C304.95,185.16 322.78,164.11 329.93,156.65 C352.14,133.48 391.81,108.42 430.00,93.44 C446.32,87.04 452.00,84.36 452.00,83.08 C452.00,82.43 449.99,82.77 446.55,83.86 C446.87,83.71 447.19,83.55 447.50,83.39 C451.90,81.04 460.97,78.00 463.57,78.00 C464.82,78.00 465.98,77.59 466.17,77.08 C466.61,75.87 489.73,68.82 503.00,65.85 C512.15,63.80 516.13,63.50 534.00,63.50 C557.03,63.50 563.72,64.56 567.01,68.74 C570.21,72.81 569.66,74.23 565.25,73.30 C565.08,73.26 564.85,73.22 564.57,73.19 C561.80,72.69 555.34,72.50 543.20,72.50 C524.07,72.50 520.25,72.78 511.00,74.85 C498.96,77.54 487.33,81.21 475.79,85.95 C464.50,90.52 453.48,95.94 443.50,101.92 C433.83,107.71 431.00,109.22 431.00,108.60 C431.00,107.32 448.98,96.44 460.50,90.74 C477.00,82.57 485.19,79.47 502.01,75.05 C511.79,72.48 515.51,71.09 515.50,70.00 C515.47,67.52 502.59,68.37 495.94,71.30 C493.99,72.16 491.09,73.19 489.51,73.59 C487.93,73.98 485.48,74.91 484.07,75.65 C482.65,76.38 480.71,76.99 479.74,76.99 C478.77,77.00 477.19,77.42 476.24,77.93 C475.28,78.44 471.35,79.60 467.50,80.49 C463.65,81.39 458.14,83.45 455.27,85.06 C452.39,86.68 449.32,88.00 448.44,88.00 C447.57,88.00 443.63,90.06 439.68,92.57 C435.73,95.09 430.16,98.58 427.31,100.32 C409.57,111.17 370.59,140.39 359.14,151.44 C348.15,162.04 330.74,183.01 319.96,198.62 C319.16,199.79 316.49,203.39 314.03,206.62 C311.57,209.86 307.75,215.24 305.53,218.60 C300.37,226.40 286.97,240.98 284.95,240.99 C284.10,241.00 282.92,241.48 282.34,242.06 C281.76,242.64 278.68,243.38 275.49,243.71 L 269.69 244.31 L 270.35 241.02 C272.14,232.03 282.26,211.55 293.50,193.99 C292.84,195.07 292.20,196.17 291.55,197.28 ZM 502.84 764.78 L 504.19 765.17 L 504.23 765.13 C513.46,767.46 522.01,769.12 531.03,770.31 C531.35,770.35 531.67,770.39 532.00,770.44 C547.64,772.51 565.16,773.24 582.54,772.59 C609.58,771.67 635.24,767.20 658.74,759.35 C671.67,755.12 683.38,750.26 690.32,746.06 C705.65,738.17 716.71,730.16 727.97,718.91 C732.32,714.56 736.32,711.00 736.85,711.00 C737.39,711.00 739.11,709.61 740.67,707.92 C742.22,706.23 744.48,704.45 745.69,703.97 C747.64,703.19 766.00,674.15 766.00,671.84 C766.00,671.40 766.35,671.04 766.79,671.00 C766.85,671.01 766.90,671.02 766.95,671.03 C767.81,671.83 759.27,687.82 751.80,699.52 C747.87,705.42 743.74,710.97 739.44,716.13 C731.60,725.34 722.40,734.30 714.29,740.40 C705.08,747.32 692.96,754.00 679.43,759.79 C659.24,768.35 635.77,774.90 612.76,778.05 C605.51,779.05 594.07,779.86 582.93,780.31 C579.90,780.37 576.77,780.40 573.50,780.40 C560.54,780.40 549.35,779.93 538.27,778.76 C523.78,777.01 509.73,774.43 492.95,770.52 C491.68,770.21 490.39,769.90 489.09,769.57 C487.39,769.15 485.77,768.76 484.34,768.43 C478.47,766.84 478.73,766.07 479.96,763.09 C481.57,759.22 482.61,759.21 496.02,762.95 C498.35,763.60 500.62,764.21 502.84,764.78 ZM 392.31 515.30 C392.77,515.99 393.23,516.70 393.68,517.41 C393.72,517.47 393.76,517.53 393.80,517.59 C398.03,524.31 397.96,525.43 393.47,523.55 C390.93,522.49 389.22,522.35 387.40,523.04 C386.01,523.57 383.82,524.00 382.54,524.00 C379.95,524.00 374.31,526.37 368.97,529.70 C367.03,530.90 363.65,532.33 361.47,532.88 C359.29,533.42 355.70,534.55 353.50,535.39 C347.83,537.55 343.26,537.34 337.50,534.64 C333.29,532.67 324.00,524.31 324.00,522.49 C324.00,522.19 324.69,520.28 325.54,518.25 C327.20,514.28 332.24,509.17 338.28,505.34 C340.36,504.02 345.23,500.03 349.11,496.47 C352.99,492.91 356.46,490.00 356.83,489.99 C357.20,489.99 358.56,488.43 359.86,486.52 C362.11,483.21 362.33,483.12 364.91,484.45 C365.12,484.56 365.36,484.70 365.60,484.86 C369.16,487.85 372.63,491.12 375.97,494.64 C381.57,500.81 387.86,508.65 392.31,515.30 ZM 244.30 546.27 C243.79,557.42 243.90,558.97 245.22,558.47 C249.29,556.91 265.61,513.16 267.68,498.25 C268.21,494.44 268.06,494.00 266.22,494.00 C263.44,494.00 257.06,501.45 252.64,509.86 C251.39,512.25 250.28,514.77 249.32,517.44 C250.06,515.22 250.83,513.31 251.62,511.76 C251.88,511.25 252.14,510.74 252.41,510.23 C253.51,508.17 254.85,505.91 256.31,503.61 C261.70,495.28 267.76,489.00 270.90,489.00 C272.49,489.00 272.81,490.20 273.38,498.25 C274.13,508.90 273.48,513.31 264.29,559.50 C258.22,589.97 257.01,597.04 254.93,614.00 C253.55,625.29 253.38,626.00 252.00,626.00 C251.42,626.00 250.75,625.44 250.51,624.75 C249.71,622.41 246.88,607.53 245.42,598.00 C243.86,587.84 243.00,569.57 243.20,555.93 C243.46,549.13 243.91,542.76 244.41,539.50 C244.52,538.74 244.63,537.99 244.73,537.26 C245.08,535.12 245.45,533.04 245.84,531.05 C245.06,535.68 244.55,540.73 244.30,546.27 ZM 764.11 665.94 C763.86,665.88 763.60,665.83 763.34,665.77 C762.87,665.54 762.24,665.16 761.65,664.73 C760.05,663.56 760.47,662.07 767.30,644.98 C780.91,610.96 784.30,601.06 782.92,599.40 C782.24,598.58 781.08,598.14 780.34,598.42 C779.60,598.71 779.00,598.53 779.00,598.03 C779.00,596.15 781.28,595.83 784.34,597.27 C786.08,598.10 791.98,600.23 797.45,602.01 C808.01,605.44 816.00,608.62 816.00,609.39 C816.00,609.62 812.00,608.42 806.72,606.64 C804.36,605.75 801.96,604.94 800.24,604.45 C795.69,603.00 792.03,602.05 791.36,602.18 C789.20,602.62 787.04,607.04 780.49,624.50 C769.99,652.46 765.04,664.99 764.11,665.94 ZM 385.21 503.04 C377.43,493.41 368.68,484.90 359.08,477.68 C355.00,474.62 349.15,470.75 346.08,469.08 C345.90,468.99 345.74,468.89 345.57,468.80 C345.27,468.63 344.98,468.46 344.71,468.32 C342.70,467.15 341.47,466.24 341.69,466.06 C341.72,466.05 341.76,466.05 341.80,466.04 C342.17,466.03 342.64,466.12 343.22,466.30 C343.90,466.53 344.72,466.88 345.64,467.34 C346.90,467.98 348.44,468.86 350.29,470.01 C356.16,473.69 363.77,479.40 369.84,484.80 C372.13,486.94 374.52,489.27 376.94,491.76 C380.12,495.11 382.90,498.10 385.25,500.72 C386.34,501.94 387.42,503.19 388.50,504.45 C389.44,505.55 390.26,506.53 391.01,507.41 C392.75,509.57 393.93,511.23 394.51,512.37 C395.28,513.84 397.43,517.62 399.30,520.77 C401.16,523.92 404.40,529.42 406.49,533.00 C408.58,536.58 411.32,540.62 412.58,542.00 C415.56,545.25 417.00,549.18 417.00,554.07 C417.00,558.09 415.42,559.39 414.33,556.25 C410.03,543.95 404.67,532.45 398.36,521.90 C397.18,519.78 396.09,517.92 395.18,516.50 C392.44,512.21 388.99,507.59 385.21,503.04 ZM 476.94 770.06 C476.45,770.72 475.88,771.31 475.45,771.55 L 467.78 769.05 C463.37,767.61 455.82,765.22 450.72,763.66 L 450.72 763.66 C448.39,762.92 446.34,762.26 444.76,761.74 C441.54,760.58 441.20,759.96 441.59,758.65 C442.52,756.92 448.01,757.88 460.50,761.95 C465.45,763.57 471.41,765.38 473.75,765.98 C476.09,766.59 478.00,767.42 478.00,767.85 C478.00,767.93 477.99,768.02 477.97,768.12 C477.74,768.54 477.45,769.07 477.17,769.63 ZM 529.00 660.71 C529.00,661.69 536.99,660.56 544.83,658.63 C536.91,660.66 528.86,662.20 528.30,661.63 C528.00,661.33 528.02,660.04 528.35,658.75 C528.87,656.69 530.24,656.12 540.22,653.86 C552.45,651.09 562.24,647.98 571.28,643.58 C561.97,648.38 552.48,652.74 549.14,653.47 C547.40,653.85 546.22,654.54 546.50,655.00 C547.10,655.97 542.94,657.39 534.75,659.01 C531.59,659.63 529.00,660.40 529.00,660.71 ZM 333.05 281.50 C332.98,272.73 341.34,231.18 343.57,229.17 C343.98,228.80 344.08,229.18 343.78,230.02 C343.48,230.86 342.48,235.13 341.55,239.52 C340.62,243.91 339.26,250.20 338.51,253.50 C337.77,256.80 336.61,264.23 335.93,270.00 C334.79,279.76 333.08,286.56 333.05,281.50 ZM 327.44 309.34 C327.64,302.65 328.31,296.35 328.94,295.34 C329.81,293.93 329.93,295.83 329.46,303.50 C328.47,319.48 327.00,323.73 327.44,309.34 ZM 549.51 743.25 C549.83,738.55 552.28,729.00 553.16,729.00 C554.37,729.00 554.23,730.61 552.33,738.75 C550.63,746.04 549.16,748.37 549.51,743.25 ZM 539.45 69.08 C540.32,67.67 531.66,66.19 527.35,67.03 C525.23,67.44 523.95,67.84 524.50,67.94 C525.05,68.03 527.53,68.35 530.00,68.66 C532.47,68.97 534.69,69.39 534.92,69.61 C535.72,70.36 538.89,69.99 539.45,69.08 ZM 554.55 722.53 C554.98,717.10 556.07,713.00 557.08,713.00 C558.25,713.00 558.24,713.48 556.86,720.33 C555.61,726.58 554.12,727.99 554.55,722.53 ZM 816.08 600.27 C815.90,597.46 800.83,591.75 793.49,591.28 C795.75,591.35 798.69,591.91 801.50,592.83 C811.80,596.21 813.97,595.33 805.62,591.16 C804.47,590.59 803.45,590.16 802.43,589.85 C803.35,590.02 804.21,590.24 804.96,590.49 C810.70,592.39 817.55,597.96 816.73,600.05 C816.37,600.96 816.13,601.04 816.08,600.27 ZM 548.55 67.41 C547.77,66.62 546.39,66.30 545.43,66.66 C543.82,67.28 543.82,67.40 545.46,68.59 C546.41,69.29 547.81,69.62 548.57,69.33 C549.74,68.89 549.73,68.59 548.55,67.41 ZM 626.96 600.41 C622.51,606.60 620.74,607.70 624.86,601.71 C626.60,599.17 628.55,596.78 629.20,596.38 C629.85,595.98 628.84,597.79 626.96,600.41 ZM 483.36 478.84 C473.34,462.96 460.79,449.23 446.58,438.42 C461.07,449.15 473.07,462.34 483.36,478.84 ZM 520.60 369.68 C529.62,369.85 533.95,370.38 540.00,371.72 C535.34,370.69 528.32,370.00 520.60,369.68 ZM 443.22 85.00 C438.42,86.73 431.99,89.34 424.79,92.50 C434.09,88.36 441.73,85.19 443.22,85.00 ZM 615.76 415.70 C621.26,421.44 626.04,427.09 628.92,431.50 C629.99,433.13 631.13,435.00 632.31,437.04 C627.65,429.23 622.80,423.05 615.76,415.70 ZM 322.44 157.18 C315.79,164.01 310.28,170.25 305.38,176.59 C310.23,170.11 314.87,164.96 322.44,157.18 ZM 403.00 102.60 C400.63,103.76 398.27,104.93 395.93,106.12 C380.59,113.89 367.68,121.32 356.37,128.97 C367.49,121.44 380.13,114.13 395.00,106.56 C397.42,105.33 400.13,103.99 403.00,102.60 ZM 586.70 390.95 C587.63,391.54 588.55,392.15 589.47,392.76 C593.11,395.19 597.30,398.48 601.60,402.22 C596.71,398.02 591.77,394.29 586.70,390.95 ZM 788.32 590.57 C788.83,589.72 791.50,589.26 794.72,589.21 C791.37,589.38 788.75,589.94 788.32,590.57 ZM 470.00 374.44 C474.36,373.12 478.31,372.14 482.38,371.42 C478.19,372.26 474.06,373.27 470.00,374.44 ZM 371.72 324.54 C375.66,326.12 380.99,329.02 388.91,333.33 C389.90,333.87 390.93,334.43 392.00,335.01 C382.16,329.66 376.00,326.27 371.72,324.54 ZM 790.30 591.48 C788.64,591.66 788.03,591.41 788.26,590.70 C788.27,590.69 788.27,590.68 788.27,590.67 C788.07,591.30 788.71,591.56 790.30,591.48 ZM 704.49 562.91 C707.45,561.87 711.67,560.77 718.00,558.98 C711.67,560.77 707.43,561.90 704.49,562.91 Z" fill="rgb(75,113,141)"/>
<path d="M 642.00 697.80 C635.12,693.85 625.30,688.46 620.17,685.81 C615.03,683.17 611.51,681.00 612.33,681.00 C613.16,681.00 616.80,682.58 620.43,684.50 C627.82,688.42 633.64,689.13 634.71,686.25 C635.06,685.29 636.16,683.60 637.14,682.50 C638.12,681.40 640.52,678.47 642.47,676.00 C647.24,669.94 647.04,670.16 653.11,664.60 C656.06,661.91 659.60,659.20 660.98,658.59 C662.37,657.98 665.30,656.33 667.50,654.93 C669.70,653.54 675.55,650.64 680.50,648.50 C685.45,646.36 690.05,644.21 690.72,643.71 C692.05,642.73 688.17,634.06 683.00,626.50 C681.50,624.30 679.93,621.38 679.51,620.00 C678.46,616.55 679.20,617.47 683.54,625.00 C685.60,628.58 688.73,633.30 690.49,635.50 C695.14,641.32 703.00,655.13 703.00,657.48 C702.99,662.25 691.64,675.54 671.75,694.06 C662.67,702.50 659.37,705.00 657.25,704.99 C655.68,704.98 649.11,701.88 642.00,697.80 ZM 564.00 702.63 C564.00,702.40 568.61,700.28 574.25,697.91 C579.89,695.54 589.66,690.99 595.96,687.80 C607.53,681.94 612.39,680.34 607.88,683.87 C601.51,688.85 564.00,704.89 564.00,702.63 ZM 529.00 660.71 C529.00,660.40 531.59,659.63 534.75,659.01 C542.94,657.39 547.10,655.97 546.50,655.00 C546.22,654.54 547.40,653.85 549.14,653.47 C554.88,652.21 578.85,640.22 588.76,633.66 C594.12,630.10 601.06,625.01 604.18,622.33 C611.12,616.39 621.88,604.37 626.73,597.16 C628.70,594.22 631.17,591.30 632.21,590.66 C634.70,589.14 638.96,581.56 643.26,571.00 C648.16,558.98 649.92,553.29 652.63,540.62 C654.28,532.96 654.83,531.31 654.43,535.32 C652.94,549.97 646.33,570.09 637.55,586.65 C620.23,619.32 586.10,646.68 549.26,657.44 C540.33,660.05 529.00,661.88 529.00,660.71 ZM 626.96 600.41 C628.84,597.79 629.85,595.98 629.20,596.38 C628.55,596.78 626.60,599.17 624.86,601.71 C620.74,607.70 622.51,606.60 626.96,600.41 ZM 677.67 615.33 C676.15,613.82 677.27,609.95 682.11,600.00 C687.07,589.82 696.00,568.10 696.00,566.23 C696.00,563.40 702.56,561.05 737.24,551.43 C742.60,549.95 747.72,548.19 748.63,547.53 C751.61,545.35 753.33,522.60 751.99,503.06 C751.37,494.02 750.45,485.84 749.94,484.89 C748.82,482.80 747.94,482.51 721.64,475.57 C710.17,472.54 700.11,469.51 699.29,468.83 C697.50,467.34 696.63,467.17 687.04,466.43 C682.94,466.11 678.68,465.37 677.58,464.78 C675.27,463.54 660.28,463.25 654.82,464.33 C651.83,464.93 651.03,465.60 650.51,467.95 C650.16,469.53 650.14,472.56 650.47,474.67 C650.84,477.12 650.01,475.57 648.15,470.37 C644.18,459.24 635.23,441.14 628.92,431.50 C621.61,420.32 602.16,401.22 589.47,392.76 C573.69,382.24 558.72,375.88 540.00,371.72 C532.13,369.97 527.15,369.61 511.00,369.61 C489.38,369.60 480.41,370.87 464.50,376.20 C455.42,379.24 436.78,387.39 434.00,389.54 C433.17,390.17 431.80,390.94 430.95,391.24 C428.38,392.14 413.86,404.01 408.08,409.94 C402.23,415.94 402.14,414.98 407.95,408.63 C414.20,401.81 433.00,387.47 438.42,385.39 C443.13,383.58 436.18,374.81 423.00,365.91 C419.42,363.50 414.48,359.78 412.00,357.65 C409.52,355.52 406.56,353.42 405.41,352.97 C404.26,352.53 400.66,349.05 397.41,345.24 C391.20,337.97 390.82,337.69 375.45,329.13 C364.41,322.98 364.71,322.96 356.00,330.48 C350.72,335.04 350.75,334.99 356.78,329.11 C365.72,320.40 364.83,320.25 392.00,335.01 C411.37,345.53 409.80,345.34 422.25,338.75 C431.68,333.76 446.68,327.64 458.94,323.77 C461.38,323.00 464.20,321.27 465.21,319.91 C466.22,318.56 468.85,310.29 471.06,301.53 C477.11,277.46 477.89,275.12 480.50,273.41 C484.17,271.00 501.58,269.69 521.00,270.36 C530.62,270.70 540.08,271.32 542.00,271.76 C546.63,272.79 547.90,275.53 553.00,295.50 C557.95,314.87 559.88,321.14 561.37,322.65 C561.99,323.28 565.65,324.93 569.50,326.31 C579.43,329.87 584.82,332.25 598.77,339.24 L 611.04 345.40 L 616.77 342.61 C619.92,341.08 629.75,335.82 638.61,330.91 C647.47,326.01 655.64,322.00 656.77,322.00 C659.81,322.00 666.80,328.01 683.09,344.62 C705.05,367.03 706.63,369.89 701.32,377.61 C699.85,379.75 694.68,388.23 689.82,396.46 C683.58,407.05 681.00,412.38 681.00,414.69 C681.00,416.56 683.51,423.40 686.90,430.73 C690.15,437.75 694.03,447.55 695.52,452.50 C699.03,464.11 700.30,466.48 703.70,467.81 C706.74,468.99 732.61,476.35 737.50,477.43 C748.99,479.95 750.88,480.90 752.03,484.77 C753.61,490.04 754.45,529.85 753.18,538.85 C752.57,543.17 751.42,546.98 750.39,548.12 C748.63,550.07 744.10,551.59 718.00,558.98 C696.89,564.96 699.16,563.21 694.15,577.28 C691.76,584.00 687.27,594.67 684.17,601.00 C681.07,607.33 678.64,613.29 678.76,614.25 C678.99,616.13 678.73,616.39 677.67,615.33 ZM 801.50 592.83 C797.86,591.64 794.01,591.05 791.70,591.34 C789.08,591.67 788.01,591.46 788.28,590.66 C788.50,589.99 791.28,589.37 794.87,589.20 C799.74,588.97 802.07,589.39 805.62,591.16 C813.97,595.33 811.80,596.21 801.50,592.83 ZM 244.30 546.27 C245.00,530.93 247.65,519.35 252.64,509.86 C257.06,501.45 263.44,494.00 266.22,494.00 C268.06,494.00 268.21,494.44 267.68,498.25 C265.61,513.16 249.29,556.91 245.22,558.47 C243.90,558.97 243.79,557.42 244.30,546.27 ZM 495.47 505.37 C493.33,500.62 489.99,494.43 488.04,491.62 C486.08,488.80 483.92,485.38 483.22,484.00 C482.53,482.62 480.94,480.15 479.70,478.50 C478.47,476.85 475.28,472.58 472.63,469.00 C463.09,456.15 448.56,442.32 436.15,434.28 C425.33,427.27 416.24,423.03 401.24,417.98 C389.08,413.89 389.24,412.64 401.50,415.92 C439.68,426.16 473.62,455.83 492.55,495.50 C497.64,506.17 498.51,508.21 499.50,511.75 C500.74,516.15 499.30,513.88 495.47,505.37 ZM 291.55 197.28 C300.14,182.48 308.94,171.06 322.44,157.18 C341.11,137.99 362.91,122.85 395.93,106.12 C422.26,92.77 452.00,80.56 452.00,83.08 C452.00,84.36 446.32,87.04 430.00,93.44 C391.81,108.42 352.14,133.48 329.93,156.65 C322.78,164.11 304.95,185.16 298.22,194.09 C295.90,197.16 292.83,200.21 291.39,200.87 L 288.77 202.06 L 291.55 197.28 Z" fill="rgb(126,188,224)"/>
</g>
</svg>